<svg xmlns="http://www.w3.org/2000/svg" xmlns:xlink="http://www.w3.org/1999/xlink" width="500" zoomAndPan="magnify" viewBox="0 0 375 171.000002" height="228" preserveAspectRatio="xMidYMid meet" version="1.2"><defs><clipPath id="9a2847379e"><path d="M 16 0 L 148.71875 0 L 148.71875 170 L 16 170 Z M 16 0 "/></clipPath></defs><g id="00ef81c04a"><g clip-rule="nonzero" clip-path="url(#9a2847379e)"><path style=" stroke:none;fill-rule:evenodd;fill:#70297a;fill-opacity:1;" d="M 16.761719 12.382812 C 15.277344 41.027344 46.941406 95.582031 62.328125 120.328125 C 62.421875 120.480469 62.605469 120.546875 62.777344 120.488281 C 62.945312 120.429688 63.050781 120.269531 63.035156 120.089844 C 60.390625 89.808594 52.039062 63.4375 75.585938 32.929688 C 75.589844 32.921875 75.589844 32.917969 75.59375 32.914062 C 78.082031 29.359375 80.535156 26.019531 83.164062 22.4375 C 86.660156 17.675781 90.464844 12.492188 94.59375 6.527344 C 94.695312 6.378906 94.683594 6.183594 94.558594 6.050781 C 94.4375 5.917969 94.242188 5.886719 94.085938 5.976562 C 69.796875 19.929688 39.902344 52.152344 18.734375 14.847656 C 18.730469 14.84375 18.726562 14.835938 18.722656 14.828125 C 18.304688 13.976562 17.894531 13.113281 17.5 12.242188 C 17.421875 12.078125 17.25 11.992188 17.074219 12.027344 C 16.898438 12.058594 16.773438 12.203125 16.761719 12.382812 Z M 72.820312 48.898438 C 72.679688 48.898438 72.558594 48.828125 72.484375 48.707031 C 72.414062 48.582031 72.414062 48.441406 72.488281 48.320312 C 74.445312 44.957031 76.609375 41.589844 78.878906 38.269531 C 78.960938 38.148438 79.09375 38.089844 79.238281 38.105469 C 82 38.394531 84.679688 38.875 87.351562 39.570312 C 87.472656 39.601562 87.5625 39.679688 87.613281 39.796875 C 87.660156 39.914062 87.648438 40.03125 87.585938 40.140625 C 85.71875 43.230469 83.964844 46.363281 82.351562 49.539062 C 82.273438 49.691406 82.105469 49.773438 81.933594 49.742188 C 78.933594 49.152344 75.875 48.871094 72.820312 48.898438 Z M 28.257812 100.304688 C 29.53125 109.8125 33.828125 118.996094 41.144531 126.3125 C 58.855469 144.019531 87.566406 144.019531 105.273438 126.3125 C 120.359375 111.226562 122.78125 87.8125 111.605469 70.085938 C 111.542969 69.988281 111.527344 69.882812 111.558594 69.773438 C 111.589844 69.667969 111.65625 69.585938 111.757812 69.535156 C 114.832031 68.003906 118.074219 66.636719 121.402344 65.410156 C 121.578125 65.34375 121.769531 65.414062 121.867188 65.574219 C 133.917969 85.988281 131.910156 111.988281 116.648438 130.316406 C 116.519531 130.472656 116.53125 130.695312 116.671875 130.835938 L 126.207031 140.375 C 126.359375 140.523438 126.601562 140.523438 126.753906 140.375 L 128.011719 139.113281 C 128.261719 138.863281 128.691406 138.863281 128.945312 139.113281 L 148.535156 158.707031 C 148.671875 158.839844 148.738281 159.007812 148.738281 159.171875 L 148.722656 159.171875 C 148.722656 159.34375 148.660156 159.515625 148.535156 159.640625 L 138.601562 169.574219 C 138.476562 169.699219 138.308594 169.761719 138.136719 169.761719 L 138.136719 169.773438 C 137.972656 169.773438 137.804688 169.707031 137.667969 169.574219 L 118.078125 149.980469 C 117.824219 149.730469 117.824219 149.300781 118.078125 149.050781 L 119.335938 147.792969 C 119.484375 147.640625 119.484375 147.398438 119.335938 147.246094 L 109.796875 137.710938 C 109.65625 137.570312 109.433594 137.558594 109.28125 137.6875 C 98.851562 146.367188 86.03125 150.707031 73.210938 150.707031 C 43.453125 150.707031 18.792969 127.609375 16.863281 97.9375 C 16.121094 86.457031 18.859375 74.800781 25.082031 64.683594 C 25.160156 64.558594 25.292969 64.492188 25.441406 64.503906 C 25.589844 64.515625 25.710938 64.601562 25.765625 64.738281 C 27.472656 68.816406 29.292969 72.867188 31.1875 76.839844 C 31.234375 76.941406 31.238281 77.046875 31.195312 77.148438 C 28.195312 84.523438 27.214844 92.527344 28.257812 100.304688 Z M 123.6875 31.78125 C 123.6875 40.789062 134.628906 45.324219 141 38.953125 C 147.371094 32.582031 142.835938 21.640625 133.828125 21.640625 C 128.226562 21.640625 123.6875 26.179688 123.6875 31.78125 Z M 111.691406 16.523438 C 111.800781 16.390625 111.980469 16.347656 112.140625 16.417969 C 112.300781 16.484375 112.390625 16.648438 112.367188 16.820312 C 110.753906 28.707031 114.625 37.472656 118.960938 42.804688 C 123.320312 48.164062 128.171875 50.0625 138.917969 53.914062 C 139.078125 53.972656 139.179688 54.125 139.171875 54.296875 C 139.164062 54.46875 139.046875 54.609375 138.878906 54.648438 C 126.734375 57.628906 110.957031 61.898438 103.570312 67.8125 C 89.613281 78.992188 83.953125 96.121094 77.328125 115.78125 C 77.269531 115.960938 77.09375 116.066406 76.90625 116.039062 C 76.71875 116.007812 76.582031 115.855469 76.578125 115.667969 C 76.269531 100.886719 77.339844 77.253906 82.011719 64.605469 C 87.574219 49.542969 97.097656 34.230469 111.691406 16.523438 Z M 36.238281 11.015625 C 36.238281 4.929688 41.171875 -0.0078125 47.261719 -0.0078125 C 57.054688 -0.0078125 61.980469 11.886719 55.054688 18.8125 C 48.128906 25.738281 36.238281 20.808594 36.238281 11.015625 Z M 36.238281 11.015625 "/></g><g style="fill:#70297a;fill-opacity:1;"><g transform="translate(160.693537, 91.478916)"><path style="stroke:none" d="M 21.484375 -12.078125 C 21.828125 -12.078125 22 -11.898438 22 -11.546875 L 22 -2.625 C 22 -2.488281 21.960938 -2.347656 21.890625 -2.203125 C 21.828125 -2.054688 21.738281 -1.941406 21.625 -1.859375 C 21.164062 -1.546875 20.628906 -1.253906 20.015625 -0.984375 C 19.410156 -0.710938 18.757812 -0.472656 18.0625 -0.265625 C 17.363281 -0.0664062 16.648438 0.0859375 15.921875 0.203125 C 15.203125 0.316406 14.507812 0.375 13.84375 0.375 C 12.457031 0.375 11.140625 0.175781 9.890625 -0.21875 C 8.640625 -0.625 7.492188 -1.195312 6.453125 -1.9375 C 5.421875 -2.675781 4.523438 -3.550781 3.765625 -4.5625 C 3.015625 -5.582031 2.429688 -6.707031 2.015625 -7.9375 C 1.609375 -9.164062 1.40625 -10.472656 1.40625 -11.859375 C 1.40625 -13.234375 1.609375 -14.539062 2.015625 -15.78125 C 2.429688 -17.019531 3.015625 -18.144531 3.765625 -19.15625 C 4.523438 -20.164062 5.421875 -21.039062 6.453125 -21.78125 C 7.484375 -22.53125 8.625 -23.101562 9.875 -23.5 C 11.125 -23.90625 12.441406 -24.109375 13.828125 -24.109375 C 14.628906 -24.109375 15.472656 -24.019531 16.359375 -23.84375 C 17.242188 -23.664062 18.097656 -23.394531 18.921875 -23.03125 C 19.753906 -22.675781 20.492188 -22.226562 21.140625 -21.6875 C 21.285156 -21.5625 21.375 -21.40625 21.40625 -21.21875 C 21.4375 -21.039062 21.398438 -20.878906 21.296875 -20.734375 L 19.578125 -18.125 C 19.460938 -17.957031 19.3125 -17.863281 19.125 -17.84375 C 18.945312 -17.832031 18.78125 -17.894531 18.625 -18.03125 C 18.15625 -18.4375 17.644531 -18.765625 17.09375 -19.015625 C 16.539062 -19.265625 15.984375 -19.445312 15.421875 -19.5625 C 14.859375 -19.675781 14.332031 -19.734375 13.84375 -19.734375 C 12.71875 -19.734375 11.671875 -19.53125 10.703125 -19.125 C 9.734375 -18.726562 8.882812 -18.171875 8.15625 -17.453125 C 7.425781 -16.742188 6.851562 -15.910156 6.4375 -14.953125 C 6.03125 -13.992188 5.828125 -12.960938 5.828125 -11.859375 C 5.828125 -10.742188 6.023438 -9.703125 6.421875 -8.734375 C 6.816406 -7.765625 7.367188 -6.910156 8.078125 -6.171875 C 8.796875 -5.441406 9.644531 -4.867188 10.625 -4.453125 C 11.601562 -4.035156 12.675781 -3.828125 13.84375 -3.828125 C 14.25 -3.828125 14.695312 -3.878906 15.1875 -3.984375 C 15.675781 -4.085938 16.15625 -4.226562 16.625 -4.40625 C 17.09375 -4.59375 17.484375 -4.796875 17.796875 -5.015625 L 17.796875 -8.390625 L 13.734375 -8.390625 C 13.398438 -8.390625 13.234375 -8.5625 13.234375 -8.90625 L 13.234375 -11.546875 C 13.234375 -11.898438 13.398438 -12.078125 13.734375 -12.078125 Z M 21.484375 -12.078125 "/></g></g><g style="fill:#70297a;fill-opacity:1;"><g transform="translate(187.954356, 91.478916)"><path style="stroke:none" d="M 20.03125 -4.1875 C 20.320312 -4.1875 20.550781 -4.109375 20.71875 -3.953125 C 20.894531 -3.796875 20.984375 -3.582031 20.984375 -3.3125 L 20.984375 -0.6875 C 20.984375 -0.476562 20.914062 -0.3125 20.78125 -0.1875 C 20.65625 -0.0625 20.484375 0 20.265625 0 L 3.53125 0 C 3.0625 0 2.828125 -0.226562 2.828125 -0.6875 L 2.828125 -23.046875 C 2.828125 -23.515625 3.0625 -23.75 3.53125 -23.75 L 19.9375 -23.75 C 20.164062 -23.75 20.34375 -23.6875 20.46875 -23.5625 C 20.59375 -23.4375 20.65625 -23.269531 20.65625 -23.0625 L 20.65625 -20.28125 C 20.65625 -19.800781 20.414062 -19.5625 19.9375 -19.5625 L 7.25 -19.5625 L 7.25 -13 L 17.1875 -13 C 17.445312 -13 17.648438 -12.9375 17.796875 -12.8125 C 17.941406 -12.6875 18.015625 -12.503906 18.015625 -12.265625 L 18.015625 -9.65625 C 18.015625 -9.445312 17.941406 -9.273438 17.796875 -9.140625 C 17.648438 -9.015625 17.445312 -8.953125 17.1875 -8.953125 L 7.25 -8.953125 L 7.25 -4.1875 Z M 20.03125 -4.1875 "/></g></g><g style="fill:#70297a;fill-opacity:1;"><g transform="translate(213.730077, 91.478916)"><path style="stroke:none" d="M 0.921875 -20.59375 L 0.921875 -23.0625 C 0.921875 -23.519531 1.148438 -23.75 1.609375 -23.75 L 17.890625 -23.75 C 18.097656 -23.75 18.257812 -23.6875 18.375 -23.5625 C 18.5 -23.4375 18.5625 -23.269531 18.5625 -23.0625 L 18.5625 -20.59375 C 18.5625 -20.125 18.335938 -19.890625 17.890625 -19.890625 L 11.921875 -19.890625 L 11.921875 -0.671875 C 11.921875 -0.210938 11.6875 0.015625 11.21875 0.015625 L 8.203125 0.015625 C 7.742188 0.015625 7.515625 -0.210938 7.515625 -0.671875 L 7.515625 -19.890625 L 1.609375 -19.890625 C 1.398438 -19.890625 1.234375 -19.945312 1.109375 -20.0625 C 0.984375 -20.1875 0.921875 -20.363281 0.921875 -20.59375 Z M 0.921875 -20.59375 "/></g></g><g style="fill:#70297a;fill-opacity:1;"><g transform="translate(236.410554, 91.478916)"><path style="stroke:none" d=""/></g></g><g style="fill:#70297a;fill-opacity:1;"><g transform="translate(249.680238, 91.478916)"><path style="stroke:none" d="M 22.953125 -23.78125 C 23.304688 -23.78125 23.484375 -23.601562 23.484375 -23.25 L 23.484375 -0.5 C 23.484375 -0.15625 23.304688 0.015625 22.953125 0.015625 L 19.578125 0.015625 C 19.242188 0.015625 19.078125 -0.15625 19.078125 -0.5 L 19.078125 -7.546875 L 7.25 -7.546875 L 7.25 -0.5 C 7.25 -0.15625 7.078125 0.015625 6.734375 0.015625 L 3.359375 0.015625 C 3.003906 0.015625 2.828125 -0.15625 2.828125 -0.5 L 2.828125 -23.25 C 2.828125 -23.601562 3.003906 -23.78125 3.359375 -23.78125 L 6.734375 -23.78125 C 7.078125 -23.78125 7.25 -23.601562 7.25 -23.25 L 7.25 -11.421875 L 19.078125 -11.421875 L 19.078125 -23.25 C 19.078125 -23.601562 19.242188 -23.78125 19.578125 -23.78125 Z M 22.953125 -23.78125 "/></g></g><g style="fill:#70297a;fill-opacity:1;"><g transform="translate(279.192143, 91.478916)"><path style="stroke:none" d="M 7.234375 -23.25 L 7.234375 -0.5 C 7.234375 -0.15625 7.054688 0.015625 6.703125 0.015625 L 3.34375 0.015625 C 3 0.015625 2.828125 -0.15625 2.828125 -0.5 L 2.828125 -23.25 C 2.828125 -23.601562 3 -23.78125 3.34375 -23.78125 L 6.703125 -23.78125 C 7.054688 -23.78125 7.234375 -23.601562 7.234375 -23.25 Z M 7.234375 -23.25 "/></g></g><g style="fill:#70297a;fill-opacity:1;"><g transform="translate(292.461827, 91.478916)"><path style="stroke:none" d="M 17.75 -7.015625 L 20.9375 -0.796875 C 21.050781 -0.566406 21.066406 -0.375 20.984375 -0.21875 C 20.898438 -0.0625 20.734375 0.015625 20.484375 0.015625 L 17.046875 0.015625 C 16.898438 0.015625 16.75 -0.0351562 16.59375 -0.140625 C 16.445312 -0.253906 16.332031 -0.394531 16.25 -0.5625 L 13.78125 -5.59375 C 13.519531 -5.550781 13.253906 -5.519531 12.984375 -5.5 C 12.710938 -5.488281 12.4375 -5.484375 12.15625 -5.484375 L 7.25 -5.484375 L 7.25 -0.671875 C 7.25 -0.460938 7.179688 -0.296875 7.046875 -0.171875 C 6.910156 -0.046875 6.738281 0.015625 6.53125 0.015625 L 3.53125 0.015625 C 3.332031 0.015625 3.164062 -0.046875 3.03125 -0.171875 C 2.894531 -0.296875 2.828125 -0.460938 2.828125 -0.671875 L 2.828125 -23.078125 C 2.828125 -23.273438 2.894531 -23.4375 3.03125 -23.5625 C 3.164062 -23.6875 3.332031 -23.75 3.53125 -23.75 L 4.3125 -23.75 C 4.769531 -23.75 5.21875 -23.75 5.65625 -23.75 C 6.101562 -23.75 6.421875 -23.75 6.609375 -23.75 L 12.15625 -23.75 C 13.550781 -23.75 14.832031 -23.519531 16 -23.0625 C 17.175781 -22.613281 18.191406 -21.976562 19.046875 -21.15625 C 19.910156 -20.332031 20.578125 -19.359375 21.046875 -18.234375 C 21.523438 -17.109375 21.765625 -15.875 21.765625 -14.53125 C 21.765625 -12.914062 21.40625 -11.457031 20.6875 -10.15625 C 19.96875 -8.863281 18.988281 -7.816406 17.75 -7.015625 Z M 11.875 -9.171875 C 12.9375 -9.171875 13.878906 -9.398438 14.703125 -9.859375 C 15.523438 -10.316406 16.171875 -10.953125 16.640625 -11.765625 C 17.117188 -12.578125 17.359375 -13.507812 17.359375 -14.5625 C 17.359375 -15.332031 17.21875 -16.039062 16.9375 -16.6875 C 16.664062 -17.34375 16.28125 -17.910156 15.78125 -18.390625 C 15.289062 -18.867188 14.710938 -19.238281 14.046875 -19.5 C 13.378906 -19.757812 12.65625 -19.890625 11.875 -19.890625 L 7.25 -19.890625 L 7.25 -9.171875 Z M 11.875 -9.171875 "/></g></g><g style="fill:#70297a;fill-opacity:1;"><g transform="translate(319.37873, 91.478916)"><path style="stroke:none" d="M 20.03125 -4.1875 C 20.320312 -4.1875 20.550781 -4.109375 20.71875 -3.953125 C 20.894531 -3.796875 20.984375 -3.582031 20.984375 -3.3125 L 20.984375 -0.6875 C 20.984375 -0.476562 20.914062 -0.3125 20.78125 -0.1875 C 20.65625 -0.0625 20.484375 0 20.265625 0 L 3.53125 0 C 3.0625 0 2.828125 -0.226562 2.828125 -0.6875 L 2.828125 -23.046875 C 2.828125 -23.515625 3.0625 -23.75 3.53125 -23.75 L 19.9375 -23.75 C 20.164062 -23.75 20.34375 -23.6875 20.46875 -23.5625 C 20.59375 -23.4375 20.65625 -23.269531 20.65625 -23.0625 L 20.65625 -20.28125 C 20.65625 -19.800781 20.414062 -19.5625 19.9375 -19.5625 L 7.25 -19.5625 L 7.25 -13 L 17.1875 -13 C 17.445312 -13 17.648438 -12.9375 17.796875 -12.8125 C 17.941406 -12.6875 18.015625 -12.503906 18.015625 -12.265625 L 18.015625 -9.65625 C 18.015625 -9.445312 17.941406 -9.273438 17.796875 -9.140625 C 17.648438 -9.015625 17.445312 -8.953125 17.1875 -8.953125 L 7.25 -8.953125 L 7.25 -4.1875 Z M 20.03125 -4.1875 "/></g></g><g style="fill:#70297a;fill-opacity:1;"><g transform="translate(345.154451, 91.478916)"><path style="stroke:none" d="M 2.828125 -0.6875 L 2.828125 -23.0625 C 2.828125 -23.269531 2.894531 -23.4375 3.03125 -23.5625 C 3.164062 -23.6875 3.332031 -23.75 3.53125 -23.75 L 12.265625 -23.75 C 13.660156 -23.75 14.972656 -23.554688 16.203125 -23.171875 C 17.429688 -22.796875 18.539062 -22.253906 19.53125 -21.546875 C 20.53125 -20.847656 21.382812 -20.007812 22.09375 -19.03125 C 22.800781 -18.050781 23.347656 -16.953125 23.734375 -15.734375 C 24.117188 -14.523438 24.3125 -13.234375 24.3125 -11.859375 C 24.3125 -10.492188 24.117188 -9.207031 23.734375 -8 C 23.347656 -6.800781 22.796875 -5.710938 22.078125 -4.734375 C 21.367188 -3.753906 20.515625 -2.910156 19.515625 -2.203125 C 18.523438 -1.492188 17.410156 -0.945312 16.171875 -0.5625 C 14.941406 -0.1875 13.617188 0 12.203125 0 L 3.546875 0 C 3.335938 0 3.164062 -0.0625 3.03125 -0.1875 C 2.894531 -0.320312 2.828125 -0.488281 2.828125 -0.6875 Z M 7.25 -4.1875 L 12.1875 -4.1875 C 13.300781 -4.1875 14.328125 -4.382812 15.265625 -4.78125 C 16.210938 -5.175781 17.03125 -5.722656 17.71875 -6.421875 C 18.40625 -7.128906 18.9375 -7.945312 19.3125 -8.875 C 19.695312 -9.800781 19.890625 -10.796875 19.890625 -11.859375 C 19.890625 -12.953125 19.695312 -13.96875 19.3125 -14.90625 C 18.9375 -15.851562 18.40625 -16.679688 17.71875 -17.390625 C 17.039062 -18.097656 16.234375 -18.644531 15.296875 -19.03125 C 14.367188 -19.425781 13.351562 -19.625 12.25 -19.625 L 7.25 -19.609375 Z M 7.25 -4.1875 "/></g></g><g style="fill:#f7fbfa;fill-opacity:0.4;"><g transform="translate(177.941761, 103.613074)"><path style="stroke:none" d="M 3.75 -1.484375 L 4.421875 -0.171875 C 4.441406 -0.117188 4.441406 -0.078125 4.421875 -0.046875 C 4.410156 -0.015625 4.378906 0 4.328125 0 L 3.59375 0 C 3.5625 0 3.53125 -0.0078125 3.5 -0.03125 C 3.46875 -0.0507812 3.445312 -0.0820312 3.4375 -0.125 L 2.90625 -1.1875 C 2.851562 -1.175781 2.796875 -1.164062 2.734375 -1.15625 C 2.679688 -1.15625 2.625 -1.15625 2.5625 -1.15625 L 1.53125 -1.15625 L 1.53125 -0.140625 C 1.53125 -0.0976562 1.515625 -0.0625 1.484375 -0.03125 C 1.460938 -0.0078125 1.425781 0 1.375 0 L 0.75 0 C 0.707031 0 0.671875 -0.0078125 0.640625 -0.03125 C 0.609375 -0.0625 0.59375 -0.0976562 0.59375 -0.140625 L 0.59375 -4.875 C 0.59375 -4.914062 0.609375 -4.945312 0.640625 -4.96875 C 0.671875 -5 0.707031 -5.015625 0.75 -5.015625 L 0.90625 -5.015625 C 1.007812 -5.015625 1.109375 -5.015625 1.203125 -5.015625 C 1.296875 -5.015625 1.359375 -5.015625 1.390625 -5.015625 L 2.5625 -5.015625 C 2.863281 -5.015625 3.132812 -4.96875 3.375 -4.875 C 3.625 -4.78125 3.835938 -4.644531 4.015625 -4.46875 C 4.203125 -4.289062 4.34375 -4.082031 4.4375 -3.84375 C 4.539062 -3.613281 4.59375 -3.359375 4.59375 -3.078125 C 4.59375 -2.734375 4.515625 -2.421875 4.359375 -2.140625 C 4.210938 -1.867188 4.007812 -1.648438 3.75 -1.484375 Z M 2.515625 -1.9375 C 2.734375 -1.9375 2.929688 -1.984375 3.109375 -2.078125 C 3.285156 -2.179688 3.421875 -2.316406 3.515625 -2.484375 C 3.617188 -2.660156 3.671875 -2.859375 3.671875 -3.078125 C 3.671875 -3.242188 3.640625 -3.394531 3.578125 -3.53125 C 3.515625 -3.664062 3.429688 -3.78125 3.328125 -3.875 C 3.234375 -3.976562 3.113281 -4.054688 2.96875 -4.109375 C 2.832031 -4.171875 2.679688 -4.203125 2.515625 -4.203125 L 1.53125 -4.203125 L 1.53125 -1.9375 Z M 2.515625 -1.9375 "/></g></g><g style="fill:#f7fbfa;fill-opacity:0.4;"><g transform="translate(188.348519, 103.613074)"><path style="stroke:none" d="M 4.234375 -0.890625 C 4.296875 -0.890625 4.34375 -0.867188 4.375 -0.828125 C 4.414062 -0.796875 4.4375 -0.753906 4.4375 -0.703125 L 4.4375 -0.140625 C 4.4375 -0.0976562 4.421875 -0.0625 4.390625 -0.03125 C 4.359375 -0.0078125 4.320312 0 4.28125 0 L 0.75 0 C 0.644531 0 0.59375 -0.046875 0.59375 -0.140625 L 0.59375 -4.875 C 0.59375 -4.96875 0.644531 -5.015625 0.75 -5.015625 L 4.21875 -5.015625 C 4.257812 -5.015625 4.289062 -5 4.3125 -4.96875 C 4.34375 -4.945312 4.359375 -4.914062 4.359375 -4.875 L 4.359375 -4.28125 C 4.359375 -4.175781 4.3125 -4.125 4.21875 -4.125 L 1.53125 -4.125 L 1.53125 -2.75 L 3.625 -2.75 C 3.6875 -2.75 3.734375 -2.734375 3.765625 -2.703125 C 3.796875 -2.679688 3.8125 -2.644531 3.8125 -2.59375 L 3.8125 -2.046875 C 3.8125 -1.992188 3.796875 -1.953125 3.765625 -1.921875 C 3.734375 -1.898438 3.6875 -1.890625 3.625 -1.890625 L 1.53125 -1.890625 L 1.53125 -0.890625 Z M 4.234375 -0.890625 "/></g></g><g style="fill:#f7fbfa;fill-opacity:0.4;"><g transform="translate(198.51473, 103.613074)"><path style="stroke:none" d="M 3.921875 -1.203125 C 3.960938 -1.234375 4.003906 -1.25 4.046875 -1.25 C 4.085938 -1.25 4.117188 -1.234375 4.140625 -1.203125 L 4.515625 -0.625 C 4.535156 -0.601562 4.535156 -0.570312 4.515625 -0.53125 C 4.503906 -0.488281 4.484375 -0.457031 4.453125 -0.4375 C 4.316406 -0.332031 4.160156 -0.238281 3.984375 -0.15625 C 3.816406 -0.0820312 3.640625 -0.0234375 3.453125 0.015625 C 3.273438 0.0546875 3.097656 0.078125 2.921875 0.078125 C 2.628906 0.078125 2.347656 0.0351562 2.078125 -0.046875 C 1.816406 -0.128906 1.578125 -0.25 1.359375 -0.40625 C 1.148438 -0.5625 0.960938 -0.742188 0.796875 -0.953125 C 0.640625 -1.171875 0.515625 -1.410156 0.421875 -1.671875 C 0.335938 -1.929688 0.296875 -2.207031 0.296875 -2.5 C 0.296875 -2.789062 0.335938 -3.066406 0.421875 -3.328125 C 0.515625 -3.585938 0.640625 -3.828125 0.796875 -4.046875 C 0.960938 -4.265625 1.148438 -4.453125 1.359375 -4.609375 C 1.578125 -4.765625 1.816406 -4.882812 2.078125 -4.96875 C 2.347656 -5.050781 2.628906 -5.09375 2.921875 -5.09375 C 3.085938 -5.09375 3.265625 -5.070312 3.453125 -5.03125 C 3.640625 -4.988281 3.820312 -4.925781 4 -4.84375 C 4.175781 -4.769531 4.332031 -4.675781 4.46875 -4.5625 C 4.507812 -4.53125 4.53125 -4.5 4.53125 -4.46875 C 4.539062 -4.4375 4.535156 -4.40625 4.515625 -4.375 L 4.140625 -3.8125 C 4.117188 -3.78125 4.085938 -3.757812 4.046875 -3.75 C 4.003906 -3.75 3.960938 -3.765625 3.921875 -3.796875 C 3.785156 -3.921875 3.628906 -4.015625 3.453125 -4.078125 C 3.273438 -4.140625 3.097656 -4.171875 2.921875 -4.171875 C 2.691406 -4.171875 2.472656 -4.125 2.265625 -4.03125 C 2.054688 -3.945312 1.875 -3.828125 1.71875 -3.671875 C 1.5625 -3.523438 1.441406 -3.347656 1.359375 -3.140625 C 1.273438 -2.941406 1.234375 -2.726562 1.234375 -2.5 C 1.234375 -2.269531 1.273438 -2.054688 1.359375 -1.859375 C 1.453125 -1.660156 1.570312 -1.484375 1.71875 -1.328125 C 1.875 -1.179688 2.054688 -1.066406 2.265625 -0.984375 C 2.472656 -0.898438 2.691406 -0.859375 2.921875 -0.859375 C 3.085938 -0.859375 3.257812 -0.882812 3.4375 -0.9375 C 3.613281 -1 3.773438 -1.085938 3.921875 -1.203125 Z M 3.921875 -1.203125 "/></g></g><g style="fill:#f7fbfa;fill-opacity:0.4;"><g transform="translate(208.776504, 103.613074)"><path style="stroke:none" d="M 3.75 -1.484375 L 4.421875 -0.171875 C 4.441406 -0.117188 4.441406 -0.078125 4.421875 -0.046875 C 4.410156 -0.015625 4.378906 0 4.328125 0 L 3.59375 0 C 3.5625 0 3.53125 -0.0078125 3.5 -0.03125 C 3.46875 -0.0507812 3.445312 -0.0820312 3.4375 -0.125 L 2.90625 -1.1875 C 2.851562 -1.175781 2.796875 -1.164062 2.734375 -1.15625 C 2.679688 -1.15625 2.625 -1.15625 2.5625 -1.15625 L 1.53125 -1.15625 L 1.53125 -0.140625 C 1.53125 -0.0976562 1.515625 -0.0625 1.484375 -0.03125 C 1.460938 -0.0078125 1.425781 0 1.375 0 L 0.75 0 C 0.707031 0 0.671875 -0.0078125 0.640625 -0.03125 C 0.609375 -0.0625 0.59375 -0.0976562 0.59375 -0.140625 L 0.59375 -4.875 C 0.59375 -4.914062 0.609375 -4.945312 0.640625 -4.96875 C 0.671875 -5 0.707031 -5.015625 0.75 -5.015625 L 0.90625 -5.015625 C 1.007812 -5.015625 1.109375 -5.015625 1.203125 -5.015625 C 1.296875 -5.015625 1.359375 -5.015625 1.390625 -5.015625 L 2.5625 -5.015625 C 2.863281 -5.015625 3.132812 -4.96875 3.375 -4.875 C 3.625 -4.78125 3.835938 -4.644531 4.015625 -4.46875 C 4.203125 -4.289062 4.34375 -4.082031 4.4375 -3.84375 C 4.539062 -3.613281 4.59375 -3.359375 4.59375 -3.078125 C 4.59375 -2.734375 4.515625 -2.421875 4.359375 -2.140625 C 4.210938 -1.867188 4.007812 -1.648438 3.75 -1.484375 Z M 2.515625 -1.9375 C 2.734375 -1.9375 2.929688 -1.984375 3.109375 -2.078125 C 3.285156 -2.179688 3.421875 -2.316406 3.515625 -2.484375 C 3.617188 -2.660156 3.671875 -2.859375 3.671875 -3.078125 C 3.671875 -3.242188 3.640625 -3.394531 3.578125 -3.53125 C 3.515625 -3.664062 3.429688 -3.78125 3.328125 -3.875 C 3.234375 -3.976562 3.113281 -4.054688 2.96875 -4.109375 C 2.832031 -4.171875 2.679688 -4.203125 2.515625 -4.203125 L 1.53125 -4.203125 L 1.53125 -1.9375 Z M 2.515625 -1.9375 "/></g></g><g style="fill:#f7fbfa;fill-opacity:0.4;"><g transform="translate(219.183261, 103.613074)"><path style="stroke:none" d="M 1.4375 -4.90625 L 1.4375 -2.0625 C 1.4375 -1.882812 1.460938 -1.71875 1.515625 -1.5625 C 1.578125 -1.414062 1.660156 -1.285156 1.765625 -1.171875 C 1.878906 -1.066406 2.003906 -0.984375 2.140625 -0.921875 C 2.285156 -0.859375 2.445312 -0.828125 2.625 -0.828125 C 2.789062 -0.828125 2.945312 -0.859375 3.09375 -0.921875 C 3.238281 -0.984375 3.363281 -1.066406 3.46875 -1.171875 C 3.570312 -1.285156 3.65625 -1.414062 3.71875 -1.5625 C 3.78125 -1.71875 3.8125 -1.882812 3.8125 -2.0625 L 3.8125 -4.90625 C 3.8125 -4.988281 3.847656 -5.03125 3.921875 -5.03125 L 4.609375 -5.03125 C 4.691406 -5.03125 4.734375 -4.988281 4.734375 -4.90625 L 4.734375 -2.046875 C 4.734375 -1.734375 4.679688 -1.445312 4.578125 -1.1875 C 4.484375 -0.925781 4.335938 -0.703125 4.140625 -0.515625 C 3.953125 -0.328125 3.726562 -0.179688 3.46875 -0.078125 C 3.21875 0.0234375 2.9375 0.078125 2.625 0.078125 C 2.3125 0.078125 2.023438 0.0234375 1.765625 -0.078125 C 1.503906 -0.179688 1.28125 -0.328125 1.09375 -0.515625 C 0.90625 -0.710938 0.757812 -0.941406 0.65625 -1.203125 C 0.5625 -1.460938 0.515625 -1.75 0.515625 -2.0625 L 0.515625 -4.90625 C 0.515625 -4.988281 0.550781 -5.03125 0.625 -5.03125 L 1.328125 -5.03125 C 1.398438 -5.03125 1.4375 -4.988281 1.4375 -4.90625 Z M 1.4375 -4.90625 "/></g></g><g style="fill:#f7fbfa;fill-opacity:0.4;"><g transform="translate(229.827263, 103.613074)"><path style="stroke:none" d="M 1.53125 -4.90625 L 1.53125 -0.109375 C 1.53125 -0.0351562 1.492188 0 1.421875 0 L 0.703125 0 C 0.628906 0 0.59375 -0.0351562 0.59375 -0.109375 L 0.59375 -4.90625 C 0.59375 -4.988281 0.628906 -5.03125 0.703125 -5.03125 L 1.421875 -5.03125 C 1.492188 -5.03125 1.53125 -4.988281 1.53125 -4.90625 Z M 1.53125 -4.90625 "/></g></g><g style="fill:#f7fbfa;fill-opacity:0.4;"><g transform="translate(237.357421, 103.613074)"><path style="stroke:none" d="M 0.1875 -4.34375 L 0.1875 -4.875 C 0.1875 -4.96875 0.238281 -5.015625 0.34375 -5.015625 L 3.78125 -5.015625 C 3.820312 -5.015625 3.851562 -5 3.875 -4.96875 C 3.90625 -4.945312 3.921875 -4.914062 3.921875 -4.875 L 3.921875 -4.34375 C 3.921875 -4.25 3.875 -4.203125 3.78125 -4.203125 L 2.515625 -4.203125 L 2.515625 -0.140625 C 2.515625 -0.046875 2.46875 0 2.375 0 L 1.734375 0 C 1.640625 0 1.59375 -0.046875 1.59375 -0.140625 L 1.59375 -4.203125 L 0.34375 -4.203125 C 0.300781 -4.203125 0.265625 -4.210938 0.234375 -4.234375 C 0.203125 -4.265625 0.1875 -4.300781 0.1875 -4.34375 Z M 0.1875 -4.34375 "/></g></g><g style="fill:#f7fbfa;fill-opacity:0.4;"><g transform="translate(246.87121, 103.613074)"><path style="stroke:none" d="M 5.96875 -0.15625 C 5.976562 -0.09375 5.96875 -0.0507812 5.9375 -0.03125 C 5.914062 -0.0078125 5.878906 0 5.828125 0 L 5.1875 0 C 5.144531 0 5.109375 -0.0078125 5.078125 -0.03125 C 5.054688 -0.0507812 5.039062 -0.0859375 5.03125 -0.140625 L 4.796875 -2.59375 L 3.3125 -0.0625 C 3.28125 -0.0078125 3.253906 0.0234375 3.234375 0.046875 C 3.210938 0.0664062 3.179688 0.078125 3.140625 0.078125 C 3.097656 0.078125 3.066406 0.0664062 3.046875 0.046875 C 3.035156 0.0234375 3.015625 -0.0078125 2.984375 -0.0625 L 1.5 -2.59375 L 1.25 -0.140625 C 1.238281 -0.0859375 1.222656 -0.0507812 1.203125 -0.03125 C 1.179688 -0.0078125 1.144531 0 1.09375 0 L 0.453125 0 C 0.410156 0 0.375 -0.0078125 0.34375 -0.03125 C 0.3125 -0.0507812 0.300781 -0.09375 0.3125 -0.15625 L 0.796875 -4.96875 C 0.804688 -5.050781 0.847656 -5.09375 0.921875 -5.09375 L 0.9375 -5.09375 C 0.976562 -5.09375 1.003906 -5.082031 1.015625 -5.0625 C 1.035156 -5.039062 1.054688 -5.015625 1.078125 -4.984375 L 3.140625 -1.484375 L 5.203125 -4.984375 C 5.222656 -5.015625 5.238281 -5.039062 5.25 -5.0625 C 5.269531 -5.082031 5.300781 -5.09375 5.34375 -5.09375 L 5.359375 -5.09375 C 5.429688 -5.09375 5.472656 -5.050781 5.484375 -4.96875 Z M 5.96875 -0.15625 "/></g></g><g style="fill:#f7fbfa;fill-opacity:0.4;"><g transform="translate(258.549863, 103.613074)"><path style="stroke:none" d="M 4.234375 -0.890625 C 4.296875 -0.890625 4.34375 -0.867188 4.375 -0.828125 C 4.414062 -0.796875 4.4375 -0.753906 4.4375 -0.703125 L 4.4375 -0.140625 C 4.4375 -0.0976562 4.421875 -0.0625 4.390625 -0.03125 C 4.359375 -0.0078125 4.320312 0 4.28125 0 L 0.75 0 C 0.644531 0 0.59375 -0.046875 0.59375 -0.140625 L 0.59375 -4.875 C 0.59375 -4.96875 0.644531 -5.015625 0.75 -5.015625 L 4.21875 -5.015625 C 4.257812 -5.015625 4.289062 -5 4.3125 -4.96875 C 4.34375 -4.945312 4.359375 -4.914062 4.359375 -4.875 L 4.359375 -4.28125 C 4.359375 -4.175781 4.3125 -4.125 4.21875 -4.125 L 1.53125 -4.125 L 1.53125 -2.75 L 3.625 -2.75 C 3.6875 -2.75 3.734375 -2.734375 3.765625 -2.703125 C 3.796875 -2.679688 3.8125 -2.644531 3.8125 -2.59375 L 3.8125 -2.046875 C 3.8125 -1.992188 3.796875 -1.953125 3.765625 -1.921875 C 3.734375 -1.898438 3.6875 -1.890625 3.625 -1.890625 L 1.53125 -1.890625 L 1.53125 -0.890625 Z M 4.234375 -0.890625 "/></g></g><g style="fill:#f7fbfa;fill-opacity:0.4;"><g transform="translate(268.716074, 103.613074)"><path style="stroke:none" d="M 4.953125 -5.03125 C 5.023438 -5.03125 5.0625 -4.992188 5.0625 -4.921875 L 5.0625 -0.09375 C 5.0625 -0.0390625 5.046875 -0.00390625 5.015625 0.015625 C 4.992188 0.046875 4.96875 0.0625 4.9375 0.0625 C 4.894531 0.0625 4.859375 0.0507812 4.828125 0.03125 C 4.796875 0.0078125 4.765625 -0.015625 4.734375 -0.046875 L 1.53125 -3.078125 L 1.53125 -0.109375 C 1.53125 -0.0351562 1.492188 0 1.421875 0 L 0.703125 0 C 0.628906 0 0.59375 -0.0351562 0.59375 -0.109375 L 0.59375 -4.9375 C 0.59375 -4.976562 0.601562 -5.007812 0.625 -5.03125 C 0.65625 -5.0625 0.6875 -5.078125 0.71875 -5.078125 L 0.734375 -5.078125 C 0.765625 -5.078125 0.789062 -5.066406 0.8125 -5.046875 C 0.84375 -5.023438 0.878906 -5 0.921875 -4.96875 L 4.140625 -1.921875 L 4.140625 -4.921875 C 4.140625 -4.992188 4.175781 -5.03125 4.25 -5.03125 Z M 4.953125 -5.03125 "/></g></g><g style="fill:#f7fbfa;fill-opacity:0.4;"><g transform="translate(279.775254, 103.613074)"><path style="stroke:none" d="M 0.1875 -4.34375 L 0.1875 -4.875 C 0.1875 -4.96875 0.238281 -5.015625 0.34375 -5.015625 L 3.78125 -5.015625 C 3.820312 -5.015625 3.851562 -5 3.875 -4.96875 C 3.90625 -4.945312 3.921875 -4.914062 3.921875 -4.875 L 3.921875 -4.34375 C 3.921875 -4.25 3.875 -4.203125 3.78125 -4.203125 L 2.515625 -4.203125 L 2.515625 -0.140625 C 2.515625 -0.046875 2.46875 0 2.375 0 L 1.734375 0 C 1.640625 0 1.59375 -0.046875 1.59375 -0.140625 L 1.59375 -4.203125 L 0.34375 -4.203125 C 0.300781 -4.203125 0.265625 -4.210938 0.234375 -4.234375 C 0.203125 -4.265625 0.1875 -4.300781 0.1875 -4.34375 Z M 0.1875 -4.34375 "/></g></g><g style="fill:#f7fbfa;fill-opacity:0.4;"><g transform="translate(289.289043, 103.613074)"><path style="stroke:none" d=""/></g></g><g style="fill:#f7fbfa;fill-opacity:0.4;"><g transform="translate(296.819201, 103.613074)"><path style="stroke:none" d="M 4.859375 -0.15625 C 4.878906 -0.113281 4.878906 -0.078125 4.859375 -0.046875 C 4.835938 -0.015625 4.800781 0 4.75 0 L 4.046875 0 C 4.003906 0 3.96875 -0.0078125 3.9375 -0.03125 C 3.90625 -0.0507812 3.882812 -0.0820312 3.875 -0.125 L 3.671875 -0.609375 L 1.359375 -0.609375 L 1.15625 -0.125 C 1.144531 -0.09375 1.125 -0.0625 1.09375 -0.03125 C 1.0625 -0.0078125 1.023438 0 0.984375 0 L 0.28125 0 C 0.226562 0 0.191406 -0.015625 0.171875 -0.046875 C 0.148438 -0.078125 0.148438 -0.117188 0.171875 -0.171875 L 2.3125 -4.953125 C 2.320312 -4.992188 2.34375 -5.023438 2.375 -5.046875 C 2.414062 -5.066406 2.453125 -5.078125 2.484375 -5.078125 L 2.53125 -5.078125 C 2.570312 -5.078125 2.609375 -5.066406 2.640625 -5.046875 C 2.671875 -5.023438 2.695312 -4.992188 2.71875 -4.953125 Z M 1.6875 -1.40625 L 3.34375 -1.40625 L 2.515625 -3.40625 Z M 1.6875 -1.40625 "/></g></g><g style="fill:#f7fbfa;fill-opacity:0.4;"><g transform="translate(307.245728, 103.613074)"><path style="stroke:none" d="M 4.53125 -2.546875 C 4.601562 -2.546875 4.640625 -2.507812 4.640625 -2.4375 L 4.640625 -0.5625 C 4.640625 -0.53125 4.632812 -0.5 4.625 -0.46875 C 4.613281 -0.4375 4.59375 -0.410156 4.5625 -0.390625 C 4.46875 -0.328125 4.351562 -0.265625 4.21875 -0.203125 C 4.09375 -0.148438 3.957031 -0.101562 3.8125 -0.0625 C 3.664062 -0.0195312 3.515625 0.0078125 3.359375 0.03125 C 3.210938 0.0625 3.066406 0.078125 2.921875 0.078125 C 2.628906 0.078125 2.347656 0.0351562 2.078125 -0.046875 C 1.816406 -0.128906 1.578125 -0.25 1.359375 -0.40625 C 1.140625 -0.5625 0.953125 -0.742188 0.796875 -0.953125 C 0.640625 -1.171875 0.515625 -1.410156 0.421875 -1.671875 C 0.335938 -1.929688 0.296875 -2.207031 0.296875 -2.5 C 0.296875 -2.789062 0.335938 -3.066406 0.421875 -3.328125 C 0.515625 -3.585938 0.640625 -3.828125 0.796875 -4.046875 C 0.953125 -4.265625 1.140625 -4.453125 1.359375 -4.609375 C 1.578125 -4.765625 1.816406 -4.882812 2.078125 -4.96875 C 2.347656 -5.050781 2.628906 -5.09375 2.921875 -5.09375 C 3.085938 -5.09375 3.265625 -5.070312 3.453125 -5.03125 C 3.640625 -5 3.820312 -4.941406 4 -4.859375 C 4.175781 -4.785156 4.332031 -4.691406 4.46875 -4.578125 C 4.5 -4.554688 4.515625 -4.523438 4.515625 -4.484375 C 4.523438 -4.441406 4.519531 -4.40625 4.5 -4.375 L 4.140625 -3.828125 C 4.109375 -3.796875 4.070312 -3.773438 4.03125 -3.765625 C 4 -3.765625 3.96875 -3.78125 3.9375 -3.8125 C 3.832031 -3.894531 3.722656 -3.960938 3.609375 -4.015625 C 3.492188 -4.066406 3.375 -4.101562 3.25 -4.125 C 3.132812 -4.15625 3.023438 -4.171875 2.921875 -4.171875 C 2.679688 -4.171875 2.457031 -4.128906 2.25 -4.046875 C 2.050781 -3.960938 1.875 -3.84375 1.71875 -3.6875 C 1.570312 -3.539062 1.453125 -3.363281 1.359375 -3.15625 C 1.273438 -2.957031 1.234375 -2.738281 1.234375 -2.5 C 1.234375 -2.269531 1.273438 -2.050781 1.359375 -1.84375 C 1.441406 -1.644531 1.554688 -1.46875 1.703125 -1.3125 C 1.859375 -1.15625 2.039062 -1.03125 2.25 -0.9375 C 2.457031 -0.851562 2.679688 -0.8125 2.921875 -0.8125 C 3.015625 -0.8125 3.109375 -0.820312 3.203125 -0.84375 C 3.304688 -0.863281 3.40625 -0.890625 3.5 -0.921875 C 3.601562 -0.960938 3.691406 -1.007812 3.765625 -1.0625 L 3.765625 -1.78125 L 2.90625 -1.78125 C 2.832031 -1.78125 2.796875 -1.816406 2.796875 -1.890625 L 2.796875 -2.4375 C 2.796875 -2.507812 2.832031 -2.546875 2.90625 -2.546875 Z M 4.53125 -2.546875 "/></g></g><g style="fill:#f7fbfa;fill-opacity:0.4;"><g transform="translate(317.724977, 103.613074)"><path style="stroke:none" d="M 4.234375 -0.890625 C 4.296875 -0.890625 4.34375 -0.867188 4.375 -0.828125 C 4.414062 -0.796875 4.4375 -0.753906 4.4375 -0.703125 L 4.4375 -0.140625 C 4.4375 -0.0976562 4.421875 -0.0625 4.390625 -0.03125 C 4.359375 -0.0078125 4.320312 0 4.28125 0 L 0.75 0 C 0.644531 0 0.59375 -0.046875 0.59375 -0.140625 L 0.59375 -4.875 C 0.59375 -4.96875 0.644531 -5.015625 0.75 -5.015625 L 4.21875 -5.015625 C 4.257812 -5.015625 4.289062 -5 4.3125 -4.96875 C 4.34375 -4.945312 4.359375 -4.914062 4.359375 -4.875 L 4.359375 -4.28125 C 4.359375 -4.175781 4.3125 -4.125 4.21875 -4.125 L 1.53125 -4.125 L 1.53125 -2.75 L 3.625 -2.75 C 3.6875 -2.75 3.734375 -2.734375 3.765625 -2.703125 C 3.796875 -2.679688 3.8125 -2.644531 3.8125 -2.59375 L 3.8125 -2.046875 C 3.8125 -1.992188 3.796875 -1.953125 3.765625 -1.921875 C 3.734375 -1.898438 3.6875 -1.890625 3.625 -1.890625 L 1.53125 -1.890625 L 1.53125 -0.890625 Z M 4.234375 -0.890625 "/></g></g><g style="fill:#f7fbfa;fill-opacity:0.4;"><g transform="translate(327.891188, 103.613074)"><path style="stroke:none" d="M 4.953125 -5.03125 C 5.023438 -5.03125 5.0625 -4.992188 5.0625 -4.921875 L 5.0625 -0.09375 C 5.0625 -0.0390625 5.046875 -0.00390625 5.015625 0.015625 C 4.992188 0.046875 4.96875 0.0625 4.9375 0.0625 C 4.894531 0.0625 4.859375 0.0507812 4.828125 0.03125 C 4.796875 0.0078125 4.765625 -0.015625 4.734375 -0.046875 L 1.53125 -3.078125 L 1.53125 -0.109375 C 1.53125 -0.0351562 1.492188 0 1.421875 0 L 0.703125 0 C 0.628906 0 0.59375 -0.0351562 0.59375 -0.109375 L 0.59375 -4.9375 C 0.59375 -4.976562 0.601562 -5.007812 0.625 -5.03125 C 0.65625 -5.0625 0.6875 -5.078125 0.71875 -5.078125 L 0.734375 -5.078125 C 0.765625 -5.078125 0.789062 -5.066406 0.8125 -5.046875 C 0.84375 -5.023438 0.878906 -5 0.921875 -4.96875 L 4.140625 -1.921875 L 4.140625 -4.921875 C 4.140625 -4.992188 4.175781 -5.03125 4.25 -5.03125 Z M 4.953125 -5.03125 "/></g></g><g style="fill:#f7fbfa;fill-opacity:0.4;"><g transform="translate(338.950369, 103.613074)"><path style="stroke:none" d="M 3.921875 -1.203125 C 3.960938 -1.234375 4.003906 -1.25 4.046875 -1.25 C 4.085938 -1.25 4.117188 -1.234375 4.140625 -1.203125 L 4.515625 -0.625 C 4.535156 -0.601562 4.535156 -0.570312 4.515625 -0.53125 C 4.503906 -0.488281 4.484375 -0.457031 4.453125 -0.4375 C 4.316406 -0.332031 4.160156 -0.238281 3.984375 -0.15625 C 3.816406 -0.0820312 3.640625 -0.0234375 3.453125 0.015625 C 3.273438 0.0546875 3.097656 0.078125 2.921875 0.078125 C 2.628906 0.078125 2.347656 0.0351562 2.078125 -0.046875 C 1.816406 -0.128906 1.578125 -0.25 1.359375 -0.40625 C 1.148438 -0.5625 0.960938 -0.742188 0.796875 -0.953125 C 0.640625 -1.171875 0.515625 -1.410156 0.421875 -1.671875 C 0.335938 -1.929688 0.296875 -2.207031 0.296875 -2.5 C 0.296875 -2.789062 0.335938 -3.066406 0.421875 -3.328125 C 0.515625 -3.585938 0.640625 -3.828125 0.796875 -4.046875 C 0.960938 -4.265625 1.148438 -4.453125 1.359375 -4.609375 C 1.578125 -4.765625 1.816406 -4.882812 2.078125 -4.96875 C 2.347656 -5.050781 2.628906 -5.09375 2.921875 -5.09375 C 3.085938 -5.09375 3.265625 -5.070312 3.453125 -5.03125 C 3.640625 -4.988281 3.820312 -4.925781 4 -4.84375 C 4.175781 -4.769531 4.332031 -4.675781 4.46875 -4.5625 C 4.507812 -4.53125 4.53125 -4.5 4.53125 -4.46875 C 4.539062 -4.4375 4.535156 -4.40625 4.515625 -4.375 L 4.140625 -3.8125 C 4.117188 -3.78125 4.085938 -3.757812 4.046875 -3.75 C 4.003906 -3.75 3.960938 -3.765625 3.921875 -3.796875 C 3.785156 -3.921875 3.628906 -4.015625 3.453125 -4.078125 C 3.273438 -4.140625 3.097656 -4.171875 2.921875 -4.171875 C 2.691406 -4.171875 2.472656 -4.125 2.265625 -4.03125 C 2.054688 -3.945312 1.875 -3.828125 1.71875 -3.671875 C 1.5625 -3.523438 1.441406 -3.347656 1.359375 -3.140625 C 1.273438 -2.941406 1.234375 -2.726562 1.234375 -2.5 C 1.234375 -2.269531 1.273438 -2.054688 1.359375 -1.859375 C 1.453125 -1.660156 1.570312 -1.484375 1.71875 -1.328125 C 1.875 -1.179688 2.054688 -1.066406 2.265625 -0.984375 C 2.472656 -0.898438 2.691406 -0.859375 2.921875 -0.859375 C 3.085938 -0.859375 3.257812 -0.882812 3.4375 -0.9375 C 3.613281 -1 3.773438 -1.085938 3.921875 -1.203125 Z M 3.921875 -1.203125 "/></g></g><g style="fill:#f7fbfa;fill-opacity:0.4;"><g transform="translate(349.212143, 103.613074)"><path style="stroke:none" d="M 4.21875 -5.03125 C 4.269531 -5.03125 4.304688 -5.015625 4.328125 -4.984375 C 4.347656 -4.953125 4.34375 -4.90625 4.3125 -4.84375 L 2.671875 -1.984375 L 2.671875 -0.140625 C 2.671875 -0.046875 2.625 0 2.53125 0 L 1.890625 0 C 1.785156 0 1.734375 -0.046875 1.734375 -0.140625 L 1.734375 -1.984375 L 0.09375 -4.84375 C 0.0703125 -4.90625 0.0703125 -4.953125 0.09375 -4.984375 C 0.113281 -5.015625 0.148438 -5.03125 0.203125 -5.03125 L 0.953125 -5.03125 C 0.984375 -5.03125 1.015625 -5.015625 1.046875 -4.984375 C 1.078125 -4.960938 1.101562 -4.929688 1.125 -4.890625 L 2.203125 -2.9375 L 3.28125 -4.90625 C 3.332031 -4.988281 3.394531 -5.03125 3.46875 -5.03125 Z M 4.21875 -5.03125 "/></g></g><g style="fill:#70297a;fill-opacity:1;"><g transform="translate(177.941761, 103.613074)"><path style="stroke:none" d="M 3.75 -1.484375 L 4.421875 -0.171875 C 4.441406 -0.117188 4.441406 -0.078125 4.421875 -0.046875 C 4.410156 -0.015625 4.378906 0 4.328125 0 L 3.59375 0 C 3.5625 0 3.53125 -0.0078125 3.5 -0.03125 C 3.46875 -0.0507812 3.445312 -0.0820312 3.4375 -0.125 L 2.90625 -1.1875 C 2.851562 -1.175781 2.796875 -1.164062 2.734375 -1.15625 C 2.679688 -1.15625 2.625 -1.15625 2.5625 -1.15625 L 1.53125 -1.15625 L 1.53125 -0.140625 C 1.53125 -0.0976562 1.515625 -0.0625 1.484375 -0.03125 C 1.460938 -0.0078125 1.425781 0 1.375 0 L 0.75 0 C 0.707031 0 0.671875 -0.0078125 0.640625 -0.03125 C 0.609375 -0.0625 0.59375 -0.0976562 0.59375 -0.140625 L 0.59375 -4.875 C 0.59375 -4.914062 0.609375 -4.945312 0.640625 -4.96875 C 0.671875 -5 0.707031 -5.015625 0.75 -5.015625 L 0.90625 -5.015625 C 1.007812 -5.015625 1.109375 -5.015625 1.203125 -5.015625 C 1.296875 -5.015625 1.359375 -5.015625 1.390625 -5.015625 L 2.5625 -5.015625 C 2.863281 -5.015625 3.132812 -4.96875 3.375 -4.875 C 3.625 -4.78125 3.835938 -4.644531 4.015625 -4.46875 C 4.203125 -4.289062 4.34375 -4.082031 4.4375 -3.84375 C 4.539062 -3.613281 4.59375 -3.359375 4.59375 -3.078125 C 4.59375 -2.734375 4.515625 -2.421875 4.359375 -2.140625 C 4.210938 -1.867188 4.007812 -1.648438 3.75 -1.484375 Z M 2.515625 -1.9375 C 2.734375 -1.9375 2.929688 -1.984375 3.109375 -2.078125 C 3.285156 -2.179688 3.421875 -2.316406 3.515625 -2.484375 C 3.617188 -2.660156 3.671875 -2.859375 3.671875 -3.078125 C 3.671875 -3.242188 3.640625 -3.394531 3.578125 -3.53125 C 3.515625 -3.664062 3.429688 -3.78125 3.328125 -3.875 C 3.234375 -3.976562 3.113281 -4.054688 2.96875 -4.109375 C 2.832031 -4.171875 2.679688 -4.203125 2.515625 -4.203125 L 1.53125 -4.203125 L 1.53125 -1.9375 Z M 2.515625 -1.9375 "/></g></g><g style="fill:#70297a;fill-opacity:1;"><g transform="translate(188.348519, 103.613074)"><path style="stroke:none" d="M 4.234375 -0.890625 C 4.296875 -0.890625 4.34375 -0.867188 4.375 -0.828125 C 4.414062 -0.796875 4.4375 -0.753906 4.4375 -0.703125 L 4.4375 -0.140625 C 4.4375 -0.0976562 4.421875 -0.0625 4.390625 -0.03125 C 4.359375 -0.0078125 4.320312 0 4.28125 0 L 0.75 0 C 0.644531 0 0.59375 -0.046875 0.59375 -0.140625 L 0.59375 -4.875 C 0.59375 -4.96875 0.644531 -5.015625 0.75 -5.015625 L 4.21875 -5.015625 C 4.257812 -5.015625 4.289062 -5 4.3125 -4.96875 C 4.34375 -4.945312 4.359375 -4.914062 4.359375 -4.875 L 4.359375 -4.28125 C 4.359375 -4.175781 4.3125 -4.125 4.21875 -4.125 L 1.53125 -4.125 L 1.53125 -2.75 L 3.625 -2.75 C 3.6875 -2.75 3.734375 -2.734375 3.765625 -2.703125 C 3.796875 -2.679688 3.8125 -2.644531 3.8125 -2.59375 L 3.8125 -2.046875 C 3.8125 -1.992188 3.796875 -1.953125 3.765625 -1.921875 C 3.734375 -1.898438 3.6875 -1.890625 3.625 -1.890625 L 1.53125 -1.890625 L 1.53125 -0.890625 Z M 4.234375 -0.890625 "/></g></g><g style="fill:#70297a;fill-opacity:1;"><g transform="translate(198.51473, 103.613074)"><path style="stroke:none" d="M 3.921875 -1.203125 C 3.960938 -1.234375 4.003906 -1.25 4.046875 -1.25 C 4.085938 -1.25 4.117188 -1.234375 4.140625 -1.203125 L 4.515625 -0.625 C 4.535156 -0.601562 4.535156 -0.570312 4.515625 -0.53125 C 4.503906 -0.488281 4.484375 -0.457031 4.453125 -0.4375 C 4.316406 -0.332031 4.160156 -0.238281 3.984375 -0.15625 C 3.816406 -0.0820312 3.640625 -0.0234375 3.453125 0.015625 C 3.273438 0.0546875 3.097656 0.078125 2.921875 0.078125 C 2.628906 0.078125 2.347656 0.0351562 2.078125 -0.046875 C 1.816406 -0.128906 1.578125 -0.25 1.359375 -0.40625 C 1.148438 -0.5625 0.960938 -0.742188 0.796875 -0.953125 C 0.640625 -1.171875 0.515625 -1.410156 0.421875 -1.671875 C 0.335938 -1.929688 0.296875 -2.207031 0.296875 -2.5 C 0.296875 -2.789062 0.335938 -3.066406 0.421875 -3.328125 C 0.515625 -3.585938 0.640625 -3.828125 0.796875 -4.046875 C 0.960938 -4.265625 1.148438 -4.453125 1.359375 -4.609375 C 1.578125 -4.765625 1.816406 -4.882812 2.078125 -4.96875 C 2.347656 -5.050781 2.628906 -5.09375 2.921875 -5.09375 C 3.085938 -5.09375 3.265625 -5.070312 3.453125 -5.03125 C 3.640625 -4.988281 3.820312 -4.925781 4 -4.84375 C 4.175781 -4.769531 4.332031 -4.675781 4.46875 -4.5625 C 4.507812 -4.53125 4.53125 -4.5 4.53125 -4.46875 C 4.539062 -4.4375 4.535156 -4.40625 4.515625 -4.375 L 4.140625 -3.8125 C 4.117188 -3.78125 4.085938 -3.757812 4.046875 -3.75 C 4.003906 -3.75 3.960938 -3.765625 3.921875 -3.796875 C 3.785156 -3.921875 3.628906 -4.015625 3.453125 -4.078125 C 3.273438 -4.140625 3.097656 -4.171875 2.921875 -4.171875 C 2.691406 -4.171875 2.472656 -4.125 2.265625 -4.03125 C 2.054688 -3.945312 1.875 -3.828125 1.71875 -3.671875 C 1.5625 -3.523438 1.441406 -3.347656 1.359375 -3.140625 C 1.273438 -2.941406 1.234375 -2.726562 1.234375 -2.5 C 1.234375 -2.269531 1.273438 -2.054688 1.359375 -1.859375 C 1.453125 -1.660156 1.570312 -1.484375 1.71875 -1.328125 C 1.875 -1.179688 2.054688 -1.066406 2.265625 -0.984375 C 2.472656 -0.898438 2.691406 -0.859375 2.921875 -0.859375 C 3.085938 -0.859375 3.257812 -0.882812 3.4375 -0.9375 C 3.613281 -1 3.773438 -1.085938 3.921875 -1.203125 Z M 3.921875 -1.203125 "/></g></g><g style="fill:#70297a;fill-opacity:1;"><g transform="translate(208.776504, 103.613074)"><path style="stroke:none" d="M 3.75 -1.484375 L 4.421875 -0.171875 C 4.441406 -0.117188 4.441406 -0.078125 4.421875 -0.046875 C 4.410156 -0.015625 4.378906 0 4.328125 0 L 3.59375 0 C 3.5625 0 3.53125 -0.0078125 3.5 -0.03125 C 3.46875 -0.0507812 3.445312 -0.0820312 3.4375 -0.125 L 2.90625 -1.1875 C 2.851562 -1.175781 2.796875 -1.164062 2.734375 -1.15625 C 2.679688 -1.15625 2.625 -1.15625 2.5625 -1.15625 L 1.53125 -1.15625 L 1.53125 -0.140625 C 1.53125 -0.0976562 1.515625 -0.0625 1.484375 -0.03125 C 1.460938 -0.0078125 1.425781 0 1.375 0 L 0.75 0 C 0.707031 0 0.671875 -0.0078125 0.640625 -0.03125 C 0.609375 -0.0625 0.59375 -0.0976562 0.59375 -0.140625 L 0.59375 -4.875 C 0.59375 -4.914062 0.609375 -4.945312 0.640625 -4.96875 C 0.671875 -5 0.707031 -5.015625 0.75 -5.015625 L 0.90625 -5.015625 C 1.007812 -5.015625 1.109375 -5.015625 1.203125 -5.015625 C 1.296875 -5.015625 1.359375 -5.015625 1.390625 -5.015625 L 2.5625 -5.015625 C 2.863281 -5.015625 3.132812 -4.96875 3.375 -4.875 C 3.625 -4.78125 3.835938 -4.644531 4.015625 -4.46875 C 4.203125 -4.289062 4.34375 -4.082031 4.4375 -3.84375 C 4.539062 -3.613281 4.59375 -3.359375 4.59375 -3.078125 C 4.59375 -2.734375 4.515625 -2.421875 4.359375 -2.140625 C 4.210938 -1.867188 4.007812 -1.648438 3.75 -1.484375 Z M 2.515625 -1.9375 C 2.734375 -1.9375 2.929688 -1.984375 3.109375 -2.078125 C 3.285156 -2.179688 3.421875 -2.316406 3.515625 -2.484375 C 3.617188 -2.660156 3.671875 -2.859375 3.671875 -3.078125 C 3.671875 -3.242188 3.640625 -3.394531 3.578125 -3.53125 C 3.515625 -3.664062 3.429688 -3.78125 3.328125 -3.875 C 3.234375 -3.976562 3.113281 -4.054688 2.96875 -4.109375 C 2.832031 -4.171875 2.679688 -4.203125 2.515625 -4.203125 L 1.53125 -4.203125 L 1.53125 -1.9375 Z M 2.515625 -1.9375 "/></g></g><g style="fill:#70297a;fill-opacity:1;"><g transform="translate(219.183261, 103.613074)"><path style="stroke:none" d="M 1.4375 -4.90625 L 1.4375 -2.0625 C 1.4375 -1.882812 1.460938 -1.71875 1.515625 -1.5625 C 1.578125 -1.414062 1.660156 -1.285156 1.765625 -1.171875 C 1.878906 -1.066406 2.003906 -0.984375 2.140625 -0.921875 C 2.285156 -0.859375 2.445312 -0.828125 2.625 -0.828125 C 2.789062 -0.828125 2.945312 -0.859375 3.09375 -0.921875 C 3.238281 -0.984375 3.363281 -1.066406 3.46875 -1.171875 C 3.570312 -1.285156 3.65625 -1.414062 3.71875 -1.5625 C 3.78125 -1.71875 3.8125 -1.882812 3.8125 -2.0625 L 3.8125 -4.90625 C 3.8125 -4.988281 3.847656 -5.03125 3.921875 -5.03125 L 4.609375 -5.03125 C 4.691406 -5.03125 4.734375 -4.988281 4.734375 -4.90625 L 4.734375 -2.046875 C 4.734375 -1.734375 4.679688 -1.445312 4.578125 -1.1875 C 4.484375 -0.925781 4.335938 -0.703125 4.140625 -0.515625 C 3.953125 -0.328125 3.726562 -0.179688 3.46875 -0.078125 C 3.21875 0.0234375 2.9375 0.078125 2.625 0.078125 C 2.3125 0.078125 2.023438 0.0234375 1.765625 -0.078125 C 1.503906 -0.179688 1.28125 -0.328125 1.09375 -0.515625 C 0.90625 -0.710938 0.757812 -0.941406 0.65625 -1.203125 C 0.5625 -1.460938 0.515625 -1.75 0.515625 -2.0625 L 0.515625 -4.90625 C 0.515625 -4.988281 0.550781 -5.03125 0.625 -5.03125 L 1.328125 -5.03125 C 1.398438 -5.03125 1.4375 -4.988281 1.4375 -4.90625 Z M 1.4375 -4.90625 "/></g></g><g style="fill:#70297a;fill-opacity:1;"><g transform="translate(229.827263, 103.613074)"><path style="stroke:none" d="M 1.53125 -4.90625 L 1.53125 -0.109375 C 1.53125 -0.0351562 1.492188 0 1.421875 0 L 0.703125 0 C 0.628906 0 0.59375 -0.0351562 0.59375 -0.109375 L 0.59375 -4.90625 C 0.59375 -4.988281 0.628906 -5.03125 0.703125 -5.03125 L 1.421875 -5.03125 C 1.492188 -5.03125 1.53125 -4.988281 1.53125 -4.90625 Z M 1.53125 -4.90625 "/></g></g><g style="fill:#70297a;fill-opacity:1;"><g transform="translate(237.357421, 103.613074)"><path style="stroke:none" d="M 0.1875 -4.34375 L 0.1875 -4.875 C 0.1875 -4.96875 0.238281 -5.015625 0.34375 -5.015625 L 3.78125 -5.015625 C 3.820312 -5.015625 3.851562 -5 3.875 -4.96875 C 3.90625 -4.945312 3.921875 -4.914062 3.921875 -4.875 L 3.921875 -4.34375 C 3.921875 -4.25 3.875 -4.203125 3.78125 -4.203125 L 2.515625 -4.203125 L 2.515625 -0.140625 C 2.515625 -0.046875 2.46875 0 2.375 0 L 1.734375 0 C 1.640625 0 1.59375 -0.046875 1.59375 -0.140625 L 1.59375 -4.203125 L 0.34375 -4.203125 C 0.300781 -4.203125 0.265625 -4.210938 0.234375 -4.234375 C 0.203125 -4.265625 0.1875 -4.300781 0.1875 -4.34375 Z M 0.1875 -4.34375 "/></g></g><g style="fill:#70297a;fill-opacity:1;"><g transform="translate(246.87121, 103.613074)"><path style="stroke:none" d="M 5.96875 -0.15625 C 5.976562 -0.09375 5.96875 -0.0507812 5.9375 -0.03125 C 5.914062 -0.0078125 5.878906 0 5.828125 0 L 5.1875 0 C 5.144531 0 5.109375 -0.0078125 5.078125 -0.03125 C 5.054688 -0.0507812 5.039062 -0.0859375 5.03125 -0.140625 L 4.796875 -2.59375 L 3.3125 -0.0625 C 3.28125 -0.0078125 3.253906 0.0234375 3.234375 0.046875 C 3.210938 0.0664062 3.179688 0.078125 3.140625 0.078125 C 3.097656 0.078125 3.066406 0.0664062 3.046875 0.046875 C 3.035156 0.0234375 3.015625 -0.0078125 2.984375 -0.0625 L 1.5 -2.59375 L 1.25 -0.140625 C 1.238281 -0.0859375 1.222656 -0.0507812 1.203125 -0.03125 C 1.179688 -0.0078125 1.144531 0 1.09375 0 L 0.453125 0 C 0.410156 0 0.375 -0.0078125 0.34375 -0.03125 C 0.3125 -0.0507812 0.300781 -0.09375 0.3125 -0.15625 L 0.796875 -4.96875 C 0.804688 -5.050781 0.847656 -5.09375 0.921875 -5.09375 L 0.9375 -5.09375 C 0.976562 -5.09375 1.003906 -5.082031 1.015625 -5.0625 C 1.035156 -5.039062 1.054688 -5.015625 1.078125 -4.984375 L 3.140625 -1.484375 L 5.203125 -4.984375 C 5.222656 -5.015625 5.238281 -5.039062 5.25 -5.0625 C 5.269531 -5.082031 5.300781 -5.09375 5.34375 -5.09375 L 5.359375 -5.09375 C 5.429688 -5.09375 5.472656 -5.050781 5.484375 -4.96875 Z M 5.96875 -0.15625 "/></g></g><g style="fill:#70297a;fill-opacity:1;"><g transform="translate(258.549863, 103.613074)"><path style="stroke:none" d="M 4.234375 -0.890625 C 4.296875 -0.890625 4.34375 -0.867188 4.375 -0.828125 C 4.414062 -0.796875 4.4375 -0.753906 4.4375 -0.703125 L 4.4375 -0.140625 C 4.4375 -0.0976562 4.421875 -0.0625 4.390625 -0.03125 C 4.359375 -0.0078125 4.320312 0 4.28125 0 L 0.75 0 C 0.644531 0 0.59375 -0.046875 0.59375 -0.140625 L 0.59375 -4.875 C 0.59375 -4.96875 0.644531 -5.015625 0.75 -5.015625 L 4.21875 -5.015625 C 4.257812 -5.015625 4.289062 -5 4.3125 -4.96875 C 4.34375 -4.945312 4.359375 -4.914062 4.359375 -4.875 L 4.359375 -4.28125 C 4.359375 -4.175781 4.3125 -4.125 4.21875 -4.125 L 1.53125 -4.125 L 1.53125 -2.75 L 3.625 -2.75 C 3.6875 -2.75 3.734375 -2.734375 3.765625 -2.703125 C 3.796875 -2.679688 3.8125 -2.644531 3.8125 -2.59375 L 3.8125 -2.046875 C 3.8125 -1.992188 3.796875 -1.953125 3.765625 -1.921875 C 3.734375 -1.898438 3.6875 -1.890625 3.625 -1.890625 L 1.53125 -1.890625 L 1.53125 -0.890625 Z M 4.234375 -0.890625 "/></g></g><g style="fill:#70297a;fill-opacity:1;"><g transform="translate(268.716074, 103.613074)"><path style="stroke:none" d="M 4.953125 -5.03125 C 5.023438 -5.03125 5.0625 -4.992188 5.0625 -4.921875 L 5.0625 -0.09375 C 5.0625 -0.0390625 5.046875 -0.00390625 5.015625 0.015625 C 4.992188 0.046875 4.96875 0.0625 4.9375 0.0625 C 4.894531 0.0625 4.859375 0.0507812 4.828125 0.03125 C 4.796875 0.0078125 4.765625 -0.015625 4.734375 -0.046875 L 1.53125 -3.078125 L 1.53125 -0.109375 C 1.53125 -0.0351562 1.492188 0 1.421875 0 L 0.703125 0 C 0.628906 0 0.59375 -0.0351562 0.59375 -0.109375 L 0.59375 -4.9375 C 0.59375 -4.976562 0.601562 -5.007812 0.625 -5.03125 C 0.65625 -5.0625 0.6875 -5.078125 0.71875 -5.078125 L 0.734375 -5.078125 C 0.765625 -5.078125 0.789062 -5.066406 0.8125 -5.046875 C 0.84375 -5.023438 0.878906 -5 0.921875 -4.96875 L 4.140625 -1.921875 L 4.140625 -4.921875 C 4.140625 -4.992188 4.175781 -5.03125 4.25 -5.03125 Z M 4.953125 -5.03125 "/></g></g><g style="fill:#70297a;fill-opacity:1;"><g transform="translate(279.775254, 103.613074)"><path style="stroke:none" d="M 0.1875 -4.34375 L 0.1875 -4.875 C 0.1875 -4.96875 0.238281 -5.015625 0.34375 -5.015625 L 3.78125 -5.015625 C 3.820312 -5.015625 3.851562 -5 3.875 -4.96875 C 3.90625 -4.945312 3.921875 -4.914062 3.921875 -4.875 L 3.921875 -4.34375 C 3.921875 -4.25 3.875 -4.203125 3.78125 -4.203125 L 2.515625 -4.203125 L 2.515625 -0.140625 C 2.515625 -0.046875 2.46875 0 2.375 0 L 1.734375 0 C 1.640625 0 1.59375 -0.046875 1.59375 -0.140625 L 1.59375 -4.203125 L 0.34375 -4.203125 C 0.300781 -4.203125 0.265625 -4.210938 0.234375 -4.234375 C 0.203125 -4.265625 0.1875 -4.300781 0.1875 -4.34375 Z M 0.1875 -4.34375 "/></g></g><g style="fill:#70297a;fill-opacity:1;"><g transform="translate(289.289043, 103.613074)"><path style="stroke:none" d=""/></g></g><g style="fill:#70297a;fill-opacity:1;"><g transform="translate(296.819201, 103.613074)"><path style="stroke:none" d="M 4.859375 -0.15625 C 4.878906 -0.113281 4.878906 -0.078125 4.859375 -0.046875 C 4.835938 -0.015625 4.800781 0 4.75 0 L 4.046875 0 C 4.003906 0 3.96875 -0.0078125 3.9375 -0.03125 C 3.90625 -0.0507812 3.882812 -0.0820312 3.875 -0.125 L 3.671875 -0.609375 L 1.359375 -0.609375 L 1.15625 -0.125 C 1.144531 -0.09375 1.125 -0.0625 1.09375 -0.03125 C 1.0625 -0.0078125 1.023438 0 0.984375 0 L 0.28125 0 C 0.226562 0 0.191406 -0.015625 0.171875 -0.046875 C 0.148438 -0.078125 0.148438 -0.117188 0.171875 -0.171875 L 2.3125 -4.953125 C 2.320312 -4.992188 2.34375 -5.023438 2.375 -5.046875 C 2.414062 -5.066406 2.453125 -5.078125 2.484375 -5.078125 L 2.53125 -5.078125 C 2.570312 -5.078125 2.609375 -5.066406 2.640625 -5.046875 C 2.671875 -5.023438 2.695312 -4.992188 2.71875 -4.953125 Z M 1.6875 -1.40625 L 3.34375 -1.40625 L 2.515625 -3.40625 Z M 1.6875 -1.40625 "/></g></g><g style="fill:#70297a;fill-opacity:1;"><g transform="translate(307.245728, 103.613074)"><path style="stroke:none" d="M 4.53125 -2.546875 C 4.601562 -2.546875 4.640625 -2.507812 4.640625 -2.4375 L 4.640625 -0.5625 C 4.640625 -0.53125 4.632812 -0.5 4.625 -0.46875 C 4.613281 -0.4375 4.59375 -0.410156 4.5625 -0.390625 C 4.46875 -0.328125 4.351562 -0.265625 4.21875 -0.203125 C 4.09375 -0.148438 3.957031 -0.101562 3.8125 -0.0625 C 3.664062 -0.0195312 3.515625 0.0078125 3.359375 0.03125 C 3.210938 0.0625 3.066406 0.078125 2.921875 0.078125 C 2.628906 0.078125 2.347656 0.0351562 2.078125 -0.046875 C 1.816406 -0.128906 1.578125 -0.25 1.359375 -0.40625 C 1.140625 -0.5625 0.953125 -0.742188 0.796875 -0.953125 C 0.640625 -1.171875 0.515625 -1.410156 0.421875 -1.671875 C 0.335938 -1.929688 0.296875 -2.207031 0.296875 -2.5 C 0.296875 -2.789062 0.335938 -3.066406 0.421875 -3.328125 C 0.515625 -3.585938 0.640625 -3.828125 0.796875 -4.046875 C 0.953125 -4.265625 1.140625 -4.453125 1.359375 -4.609375 C 1.578125 -4.765625 1.816406 -4.882812 2.078125 -4.96875 C 2.347656 -5.050781 2.628906 -5.09375 2.921875 -5.09375 C 3.085938 -5.09375 3.265625 -5.070312 3.453125 -5.03125 C 3.640625 -5 3.820312 -4.941406 4 -4.859375 C 4.175781 -4.785156 4.332031 -4.691406 4.46875 -4.578125 C 4.5 -4.554688 4.515625 -4.523438 4.515625 -4.484375 C 4.523438 -4.441406 4.519531 -4.40625 4.5 -4.375 L 4.140625 -3.828125 C 4.109375 -3.796875 4.070312 -3.773438 4.03125 -3.765625 C 4 -3.765625 3.96875 -3.78125 3.9375 -3.8125 C 3.832031 -3.894531 3.722656 -3.960938 3.609375 -4.015625 C 3.492188 -4.066406 3.375 -4.101562 3.25 -4.125 C 3.132812 -4.15625 3.023438 -4.171875 2.921875 -4.171875 C 2.679688 -4.171875 2.457031 -4.128906 2.25 -4.046875 C 2.050781 -3.960938 1.875 -3.84375 1.71875 -3.6875 C 1.570312 -3.539062 1.453125 -3.363281 1.359375 -3.15625 C 1.273438 -2.957031 1.234375 -2.738281 1.234375 -2.5 C 1.234375 -2.269531 1.273438 -2.050781 1.359375 -1.84375 C 1.441406 -1.644531 1.554688 -1.46875 1.703125 -1.3125 C 1.859375 -1.15625 2.039062 -1.03125 2.25 -0.9375 C 2.457031 -0.851562 2.679688 -0.8125 2.921875 -0.8125 C 3.015625 -0.8125 3.109375 -0.820312 3.203125 -0.84375 C 3.304688 -0.863281 3.40625 -0.890625 3.5 -0.921875 C 3.601562 -0.960938 3.691406 -1.007812 3.765625 -1.0625 L 3.765625 -1.78125 L 2.90625 -1.78125 C 2.832031 -1.78125 2.796875 -1.816406 2.796875 -1.890625 L 2.796875 -2.4375 C 2.796875 -2.507812 2.832031 -2.546875 2.90625 -2.546875 Z M 4.53125 -2.546875 "/></g></g><g style="fill:#70297a;fill-opacity:1;"><g transform="translate(317.724977, 103.613074)"><path style="stroke:none" d="M 4.234375 -0.890625 C 4.296875 -0.890625 4.34375 -0.867188 4.375 -0.828125 C 4.414062 -0.796875 4.4375 -0.753906 4.4375 -0.703125 L 4.4375 -0.140625 C 4.4375 -0.0976562 4.421875 -0.0625 4.390625 -0.03125 C 4.359375 -0.0078125 4.320312 0 4.28125 0 L 0.75 0 C 0.644531 0 0.59375 -0.046875 0.59375 -0.140625 L 0.59375 -4.875 C 0.59375 -4.96875 0.644531 -5.015625 0.75 -5.015625 L 4.21875 -5.015625 C 4.257812 -5.015625 4.289062 -5 4.3125 -4.96875 C 4.34375 -4.945312 4.359375 -4.914062 4.359375 -4.875 L 4.359375 -4.28125 C 4.359375 -4.175781 4.3125 -4.125 4.21875 -4.125 L 1.53125 -4.125 L 1.53125 -2.75 L 3.625 -2.75 C 3.6875 -2.75 3.734375 -2.734375 3.765625 -2.703125 C 3.796875 -2.679688 3.8125 -2.644531 3.8125 -2.59375 L 3.8125 -2.046875 C 3.8125 -1.992188 3.796875 -1.953125 3.765625 -1.921875 C 3.734375 -1.898438 3.6875 -1.890625 3.625 -1.890625 L 1.53125 -1.890625 L 1.53125 -0.890625 Z M 4.234375 -0.890625 "/></g></g><g style="fill:#70297a;fill-opacity:1;"><g transform="translate(327.891188, 103.613074)"><path style="stroke:none" d="M 4.953125 -5.03125 C 5.023438 -5.03125 5.0625 -4.992188 5.0625 -4.921875 L 5.0625 -0.09375 C 5.0625 -0.0390625 5.046875 -0.00390625 5.015625 0.015625 C 4.992188 0.046875 4.96875 0.0625 4.9375 0.0625 C 4.894531 0.0625 4.859375 0.0507812 4.828125 0.03125 C 4.796875 0.0078125 4.765625 -0.015625 4.734375 -0.046875 L 1.53125 -3.078125 L 1.53125 -0.109375 C 1.53125 -0.0351562 1.492188 0 1.421875 0 L 0.703125 0 C 0.628906 0 0.59375 -0.0351562 0.59375 -0.109375 L 0.59375 -4.9375 C 0.59375 -4.976562 0.601562 -5.007812 0.625 -5.03125 C 0.65625 -5.0625 0.6875 -5.078125 0.71875 -5.078125 L 0.734375 -5.078125 C 0.765625 -5.078125 0.789062 -5.066406 0.8125 -5.046875 C 0.84375 -5.023438 0.878906 -5 0.921875 -4.96875 L 4.140625 -1.921875 L 4.140625 -4.921875 C 4.140625 -4.992188 4.175781 -5.03125 4.25 -5.03125 Z M 4.953125 -5.03125 "/></g></g><g style="fill:#70297a;fill-opacity:1;"><g transform="translate(338.950369, 103.613074)"><path style="stroke:none" d="M 3.921875 -1.203125 C 3.960938 -1.234375 4.003906 -1.25 4.046875 -1.25 C 4.085938 -1.25 4.117188 -1.234375 4.140625 -1.203125 L 4.515625 -0.625 C 4.535156 -0.601562 4.535156 -0.570312 4.515625 -0.53125 C 4.503906 -0.488281 4.484375 -0.457031 4.453125 -0.4375 C 4.316406 -0.332031 4.160156 -0.238281 3.984375 -0.15625 C 3.816406 -0.0820312 3.640625 -0.0234375 3.453125 0.015625 C 3.273438 0.0546875 3.097656 0.078125 2.921875 0.078125 C 2.628906 0.078125 2.347656 0.0351562 2.078125 -0.046875 C 1.816406 -0.128906 1.578125 -0.25 1.359375 -0.40625 C 1.148438 -0.5625 0.960938 -0.742188 0.796875 -0.953125 C 0.640625 -1.171875 0.515625 -1.410156 0.421875 -1.671875 C 0.335938 -1.929688 0.296875 -2.207031 0.296875 -2.5 C 0.296875 -2.789062 0.335938 -3.066406 0.421875 -3.328125 C 0.515625 -3.585938 0.640625 -3.828125 0.796875 -4.046875 C 0.960938 -4.265625 1.148438 -4.453125 1.359375 -4.609375 C 1.578125 -4.765625 1.816406 -4.882812 2.078125 -4.96875 C 2.347656 -5.050781 2.628906 -5.09375 2.921875 -5.09375 C 3.085938 -5.09375 3.265625 -5.070312 3.453125 -5.03125 C 3.640625 -4.988281 3.820312 -4.925781 4 -4.84375 C 4.175781 -4.769531 4.332031 -4.675781 4.46875 -4.5625 C 4.507812 -4.53125 4.53125 -4.5 4.53125 -4.46875 C 4.539062 -4.4375 4.535156 -4.40625 4.515625 -4.375 L 4.140625 -3.8125 C 4.117188 -3.78125 4.085938 -3.757812 4.046875 -3.75 C 4.003906 -3.75 3.960938 -3.765625 3.921875 -3.796875 C 3.785156 -3.921875 3.628906 -4.015625 3.453125 -4.078125 C 3.273438 -4.140625 3.097656 -4.171875 2.921875 -4.171875 C 2.691406 -4.171875 2.472656 -4.125 2.265625 -4.03125 C 2.054688 -3.945312 1.875 -3.828125 1.71875 -3.671875 C 1.5625 -3.523438 1.441406 -3.347656 1.359375 -3.140625 C 1.273438 -2.941406 1.234375 -2.726562 1.234375 -2.5 C 1.234375 -2.269531 1.273438 -2.054688 1.359375 -1.859375 C 1.453125 -1.660156 1.570312 -1.484375 1.71875 -1.328125 C 1.875 -1.179688 2.054688 -1.066406 2.265625 -0.984375 C 2.472656 -0.898438 2.691406 -0.859375 2.921875 -0.859375 C 3.085938 -0.859375 3.257812 -0.882812 3.4375 -0.9375 C 3.613281 -1 3.773438 -1.085938 3.921875 -1.203125 Z M 3.921875 -1.203125 "/></g></g><g style="fill:#70297a;fill-opacity:1;"><g transform="translate(349.212143, 103.613074)"><path style="stroke:none" d="M 4.21875 -5.03125 C 4.269531 -5.03125 4.304688 -5.015625 4.328125 -4.984375 C 4.347656 -4.953125 4.34375 -4.90625 4.3125 -4.84375 L 2.671875 -1.984375 L 2.671875 -0.140625 C 2.671875 -0.046875 2.625 0 2.53125 0 L 1.890625 0 C 1.785156 0 1.734375 -0.046875 1.734375 -0.140625 L 1.734375 -1.984375 L 0.09375 -4.84375 C 0.0703125 -4.90625 0.0703125 -4.953125 0.09375 -4.984375 C 0.113281 -5.015625 0.148438 -5.03125 0.203125 -5.03125 L 0.953125 -5.03125 C 0.984375 -5.03125 1.015625 -5.015625 1.046875 -4.984375 C 1.078125 -4.960938 1.101562 -4.929688 1.125 -4.890625 L 2.203125 -2.9375 L 3.28125 -4.90625 C 3.332031 -4.988281 3.394531 -5.03125 3.46875 -5.03125 Z M 4.21875 -5.03125 "/></g></g></g></svg>