<svg xmlns="http://www.w3.org/2000/svg" xmlns:xlink="http://www.w3.org/1999/xlink" width="500" zoomAndPan="magnify" viewBox="0 0 375 374.999991" height="500" preserveAspectRatio="xMidYMid meet" version="1.2"><defs><clipPath id="cd507dc17d"><path d="M 44 0.910156 L 334.042969 0.910156 L 334.042969 374 L 44 374 Z M 44 0.910156 "/></clipPath></defs><g id="5e87c55026"><g clip-rule="nonzero" clip-path="url(#cd507dc17d)"><path style=" stroke:none;fill-rule:evenodd;fill:#70297a;fill-opacity:1;" d="M 44.128906 28.113281 C 40.863281 91.042969 110.433594 210.894531 144.234375 265.261719 C 144.441406 265.597656 144.84375 265.742188 145.21875 265.613281 C 145.59375 265.488281 145.824219 265.132812 145.792969 264.738281 C 139.980469 198.214844 121.632812 140.277344 173.359375 73.25 C 173.367188 73.242188 173.375 73.230469 173.382812 73.21875 C 178.847656 65.410156 184.230469 58.074219 190.007812 50.207031 C 197.6875 39.742188 206.050781 28.351562 215.117188 15.253906 C 215.347656 14.925781 215.316406 14.492188 215.042969 14.199219 C 214.773438 13.90625 214.347656 13.839844 214.003906 14.039062 C 160.640625 44.695312 94.964844 115.484375 48.460938 33.535156 C 48.453125 33.519531 48.449219 33.503906 48.441406 33.488281 C 47.519531 31.617188 46.621094 29.71875 45.746094 27.808594 C 45.582031 27.449219 45.203125 27.253906 44.8125 27.328125 C 44.429688 27.40625 44.152344 27.722656 44.128906 28.113281 Z M 167.289062 108.335938 C 166.976562 108.335938 166.707031 108.183594 166.550781 107.914062 C 166.394531 107.644531 166.394531 107.335938 166.550781 107.066406 C 170.855469 99.679688 175.609375 92.28125 180.59375 84.984375 C 180.773438 84.722656 181.066406 84.589844 181.382812 84.621094 C 187.453125 85.261719 193.335938 86.320312 199.210938 87.839844 C 199.476562 87.910156 199.675781 88.085938 199.78125 88.339844 C 199.882812 88.59375 199.863281 88.859375 199.722656 89.09375 C 195.625 95.886719 191.773438 102.769531 188.226562 109.742188 C 188.050781 110.082031 187.683594 110.261719 187.308594 110.1875 C 180.710938 108.898438 173.996094 108.28125 167.289062 108.335938 Z M 69.386719 221.277344 C 72.1875 242.15625 81.621094 262.335938 97.695312 278.410156 C 136.601562 317.3125 199.679688 317.3125 238.582031 278.410156 C 271.722656 245.265625 277.046875 193.832031 252.492188 154.878906 C 252.359375 154.671875 252.324219 154.441406 252.390625 154.203125 C 252.457031 153.964844 252.605469 153.785156 252.828125 153.671875 C 259.585938 150.308594 266.703125 147.304688 274.011719 144.613281 C 274.402344 144.46875 274.824219 144.621094 275.035156 144.976562 C 301.507812 189.816406 297.097656 246.941406 263.570312 287.210938 C 263.289062 287.546875 263.3125 288.039062 263.621094 288.347656 L 284.574219 309.300781 C 284.90625 309.628906 285.441406 309.628906 285.769531 309.300781 L 288.535156 306.535156 C 289.089844 305.984375 290.035156 305.984375 290.585938 306.535156 L 333.628906 349.578125 C 333.921875 349.875 334.066406 350.242188 334.066406 350.605469 L 334.042969 350.605469 C 334.042969 350.980469 333.902344 351.351562 333.628906 351.628906 L 311.800781 373.457031 C 311.527344 373.730469 311.15625 373.867188 310.777344 373.867188 L 310.777344 373.894531 C 310.417969 373.894531 310.046875 373.75 309.753906 373.457031 L 266.710938 330.410156 C 266.160156 329.859375 266.160156 328.914062 266.710938 328.363281 L 269.476562 325.597656 C 269.804688 325.269531 269.804688 324.734375 269.476562 324.402344 L 248.523438 303.449219 C 248.214844 303.140625 247.722656 303.117188 247.382812 303.398438 C 224.476562 322.464844 196.308594 332.003906 168.140625 332.003906 C 102.769531 332.003906 48.585938 281.253906 44.355469 216.070312 C 42.71875 190.851562 48.734375 165.238281 62.410156 143.019531 C 62.582031 142.742188 62.871094 142.59375 63.195312 142.617188 C 63.519531 142.644531 63.785156 142.835938 63.910156 143.136719 C 67.65625 152.09375 71.65625 160.996094 75.816406 169.71875 C 75.921875 169.941406 75.929688 170.175781 75.835938 170.402344 C 69.246094 186.605469 67.097656 204.183594 69.386719 221.277344 Z M 279.039062 70.730469 C 279.039062 90.523438 303.078125 100.480469 317.070312 86.484375 C 331.066406 72.492188 321.109375 48.453125 301.316406 48.453125 C 289.011719 48.453125 279.039062 58.425781 279.039062 70.730469 Z M 252.679688 37.210938 C 252.921875 36.917969 253.316406 36.820312 253.667969 36.976562 C 254.019531 37.128906 254.21875 37.484375 254.167969 37.863281 C 250.625 63.976562 259.125 83.234375 268.652344 94.945312 C 278.230469 106.71875 288.890625 110.890625 312.496094 119.355469 C 312.851562 119.484375 313.074219 119.816406 313.054688 120.195312 C 313.035156 120.574219 312.78125 120.882812 312.414062 120.972656 C 285.730469 127.519531 251.070312 136.894531 234.839844 149.890625 C 204.175781 174.449219 191.742188 212.078125 177.191406 255.273438 C 177.058594 255.664062 176.671875 255.902344 176.261719 255.839844 C 175.851562 255.777344 175.554688 255.433594 175.542969 255.023438 C 174.859375 222.550781 177.210938 170.636719 187.472656 142.847656 C 199.699219 109.75 220.621094 76.113281 252.679688 37.210938 Z M 86.914062 25.113281 C 86.914062 11.738281 97.753906 0.894531 111.128906 0.894531 C 132.644531 0.894531 143.46875 27.027344 128.257812 42.238281 C 113.042969 57.453125 86.914062 46.628906 86.914062 25.113281 Z M 86.914062 25.113281 "/></g></g></svg>