<?xml version="1.0" encoding="utf-8"?>
<!-- Generator: Adobe Illustrator 24.3.0, SVG Export Plug-In . SVG Version: 6.00 Build 0)  -->
<svg version="1.1" xmlns="http://www.w3.org/2000/svg" xmlns:xlink="http://www.w3.org/1999/xlink" x="0px" y="0px"
	 viewBox="0 0 271.7 321.5" style="enable-background:new 0 0 271.7 321.5;" xml:space="preserve">
<style type="text/css">
	.st0{display:none;}
	.st1{display:inline;}
	.st2{fill:#407BFF;}
	.st3{opacity:0.9;fill:#FFFFFF;}
	.st4{fill:#E5E5E5;}
	.st5{opacity:0.8;fill:#FFCCC7;}
	.st6{fill:#9F4CAB;}
	.st7{fill:#FFFFFF;}
	.st8{opacity:0.3;fill:#FFFFFF;}
	.st9{opacity:0.3;}
	.st10{fill:#263238;}
	.st11{fill:#803E3C;}
	.st12{fill:#7F3E3B;}
	.st13{fill:#70297A;}
	.st14{fill:#630F0F;}
	.st15{opacity:0.2;}
	.st16{fill:#FE3B1F;}
	.st17{opacity:0.4;}
	.st18{fill:#81358C;}
	.st19{opacity:0.5;fill:#263238;}
	.st20{opacity:0.4;fill:#9F4CAB;}
	.st21{fill:#691F74;}
</style>
<g id="Background_Complete">
</g>
<g id="Background_Simple" class="st0">
	<g class="st1">
		<path class="st2" d="M312.4,161.4c10.1,46-18.1,75.7-57.1,74.3c-18.7-0.7-41-21.2-59.4-25.8c-24-6-44.8,1.8-67.7,2.9
			c-57,2.8-56.3-20.5-94.7-50.5c-27-21.1-70.6-18.8-85-55.7c-17.7-45.2,33-67,71.5-60.3C64.1,54,76.4-1,144,5.1
			C210.4,11.1,298.2,92.1,312.4,161.4z"/>
		<path class="st3" d="M312.4,161.4c10.1,46-18.1,75.7-57.1,74.3c-18.7-0.7-41-21.2-59.4-25.8c-24-6-44.8,1.8-67.7,2.9
			c-57,2.8-56.3-20.5-94.7-50.5c-27-21.1-70.6-18.8-85-55.7c-17.7-45.2,33-67,71.5-60.3C64.1,54,76.4-1,144,5.1
			C210.4,11.1,298.2,92.1,312.4,161.4z"/>
	</g>
</g>
<g id="Shadow_1_">
	<ellipse id="_x3C_Path_x3E__137_" class="st4" cx="136" cy="309.8" rx="134.3" ry="10.5"/>
</g>
<g id="Login">
	<g>
		<g>
			<path class="st2" d="M150.3,221.7H45.6c-3.5,0-6.4-2.8-6.6-6.3L29.6,33.7c-0.2-3.5,2.5-6.3,5.9-6.3h104.7c3.5,0,6.4,2.8,6.6,6.3
				l9.4,181.8C156.4,218.9,153.7,221.7,150.3,221.7z"/>
			<path class="st5" d="M150.3,221.7H45.6c-3.5,0-6.4-2.8-6.6-6.3L29.6,33.7c-0.2-3.5,2.5-6.3,5.9-6.3h104.7c3.5,0,6.4,2.8,6.6,6.3
				l9.4,181.8C156.4,218.9,153.7,221.7,150.3,221.7z"/>
		</g>
		<path class="st6" d="M154.7,218.7H49.9c-3.5,0-6.4-2.8-6.6-6.3l-9.4-182c-0.2-3.5,2.5-6.3,5.9-6.3h104.8c3.5,0,6.4,2.8,6.6,6.3
			l9.4,182C160.8,215.9,158.2,218.7,154.7,218.7z"/>
		<path class="st7" d="M154.7,214.5H49.9c-1.2,0-2.3-1.1-2.4-2.3l-9.4-182c0-0.7,0.2-1.1,0.5-1.3c0.2-0.2,0.6-0.5,1.3-0.5h104.8
			c1.2,0,2.3,1.1,2.4,2.3l9.4,182c0,0.7-0.2,1.1-0.5,1.3C155.8,214.2,155.4,214.5,154.7,214.5z M39.9,28.6c-0.6,0-0.9,0.3-1.1,0.5
			c-0.2,0.2-0.4,0.6-0.4,1.2l9.4,182c0.1,1.1,1.1,2.1,2.2,2.1h104.8c0.6,0,0.9-0.3,1.1-0.5c0.2-0.2,0.4-0.6,0.4-1.2l-9.4-182
			c-0.1-1.1-1.1-2.1-2.2-2.1H39.9z"/>
		<ellipse transform="matrix(0.6979 -0.7162 0.7162 0.6979 -22.9494 89.5931)" class="st8" cx="94.7" cy="72" rx="30.9" ry="32.6"/>
		<path class="st7" d="M120.4,72c0.2,4.4-0.7,8.6-2.5,12.2c-3.9,8-12.1,13.4-21.9,13.4s-18.5-5.4-23.3-13.4
			c-2.2-3.6-3.5-7.8-3.7-12.2c-0.7-14.2,10.2-25.7,24.3-25.7S119.7,57.8,120.4,72z"/>
		<path class="st6" d="M117.9,84.2c-3.9,8-12.1,13.4-21.9,13.4s-18.5-5.4-23.3-13.4c6.2-4.3,13.9-6.8,22.2-6.8
			S111.2,79.9,117.9,84.2z"/>
		
			<ellipse transform="matrix(0.6979 -0.7162 0.7162 0.6979 -16.7974 86.6179)" class="st6" cx="94.3" cy="63.2" rx="11.1" ry="11.7"/>
		<g>
			<path class="st7" d="M139.7,147.9H57.6c-1.5,0-2.7-1.2-2.8-2.7l-0.6-12.1c-0.1-1.5,1.1-2.7,2.5-2.7h82.1c1.5,0,2.7,1.2,2.8,2.7
				l0.6,12.1C142.3,146.7,141.1,147.9,139.7,147.9z"/>
			<path class="st9" d="M114.5,123.9H80.3c-1.5,0-2.7-1.2-2.8-2.7l-0.1-2.6c-0.1-1.5,1.1-2.7,2.5-2.7h34.3c1.5,0,2.7,1.2,2.8,2.7
				l0.1,2.6C117.1,122.8,116,123.9,114.5,123.9z"/>
			<path class="st9" d="M127.3,205.7H76c-2.5,0-4.6-2-4.8-4.5l-0.3-5.9c-0.1-2.5,1.8-4.5,4.3-4.5h51.3c2.5,0,4.6,2,4.8,4.5l0.3,5.9
				C131.7,203.7,129.8,205.7,127.3,205.7z"/>
			<path class="st7" d="M141.2,177H59.1c-1.5,0-2.7-1.2-2.8-2.7l-0.6-12.1c-0.1-1.5,1.1-2.7,2.5-2.7h82.1c1.5,0,2.7,1.2,2.8,2.7
				l0.6,12.1C143.8,175.8,142.6,177,141.2,177z"/>
			<path class="st10" d="M68.1,139.3c0.1,1.6-1.2,2.9-2.8,2.9s-3-1.3-3.1-2.9s1.2-2.9,2.8-2.9S68,137.6,68.1,139.3z"/>
			<path class="st10" d="M77.1,139.3c0.1,1.6-1.2,2.9-2.8,2.9c-1.6,0-3-1.3-3.1-2.9c-0.1-1.6,1.2-2.9,2.8-2.9S77,137.6,77.1,139.3z"
				/>
			<path class="st10" d="M86.1,139.3c0.1,1.6-1.2,2.9-2.8,2.9s-3-1.3-3.1-2.9c-0.1-1.6,1.2-2.9,2.8-2.9S86,137.6,86.1,139.3z"/>
			<path class="st10" d="M95.1,139.3c0.1,1.6-1.2,2.9-2.8,2.9s-3-1.3-3.1-2.9c-0.1-1.6,1.2-2.9,2.8-2.9
				C93.7,136.3,95,137.6,95.1,139.3z"/>
			<path class="st10" d="M69.6,168.3c0.1,1.6-1.2,2.9-2.8,2.9c-1.6,0-3-1.3-3.1-2.9s1.2-2.9,2.8-2.9S69.5,166.7,69.6,168.3z"/>
			<path class="st10" d="M78.6,168.3c0.1,1.6-1.2,2.9-2.8,2.9s-3-1.3-3.1-2.9c-0.1-1.6,1.2-2.9,2.8-2.9S78.5,166.7,78.6,168.3z"/>
			<path class="st10" d="M87.6,168.3c0.1,1.6-1.2,2.9-2.8,2.9s-3-1.3-3.1-2.9c-0.1-1.6,1.2-2.9,2.8-2.9
				C86.1,165.4,87.5,166.7,87.6,168.3z"/>
			<path class="st10" d="M96.6,168.3c0.1,1.6-1.2,2.9-2.8,2.9s-3-1.3-3.1-2.9c-0.1-1.6,1.2-2.9,2.8-2.9S96.5,166.7,96.6,168.3z"/>
			<path class="st10" d="M105.7,168.3c0.1,1.6-1.2,2.9-2.8,2.9s-3-1.3-3.1-2.9c-0.1-1.6,1.2-2.9,2.8-2.9S105.6,166.7,105.7,168.3z"
				/>
			<path class="st10" d="M114.7,168.3c0.1,1.6-1.2,2.9-2.8,2.9s-3-1.3-3.1-2.9c-0.1-1.6,1.2-2.9,2.8-2.9S114.6,166.7,114.7,168.3z"
				/>
		</g>
	</g>
</g>
<g id="Character_1_">
	<g>
		<g>
			<path class="st11" d="M221.4,72.7c0.3,0.4,0.4,0.6,0.5,0.8l0.4,0.7c0.3,0.5,0.5,1,0.8,1.5c0.5,1,1,2,1.4,3c0.9,2,1.6,4,2.2,6.1
				c1.2,4.1,2,8.3,2.4,12.5l0.1,0.8c0,0.1,0,0.3,0,0.5l0,0.5c0,0.7,0,1.4-0.1,2.1c-0.2,1.3-0.5,2.6-1,3.7c-0.9,2.3-2.1,4.2-3.5,6
				c-2.7,3.5-5.8,6.3-9.3,8.8l-2.8-3.2c2.5-2.9,4.9-6,6.6-9.2c0.9-1.6,1.6-3.2,2-4.7c0.2-0.8,0.3-1.5,0.3-2.1c0-0.3,0-0.6,0-0.9
				l0-0.2c0-0.1,0-0.1,0-0.3l-0.1-0.7c-0.7-3.8-1.5-7.4-2.7-11c-0.6-1.8-1.3-3.5-2-5.2c-0.4-0.9-0.8-1.7-1.2-2.5l-0.6-1.2l-0.3-0.6
				l-0.3-0.4L221.4,72.7z"/>
			<path class="st12" d="M212.1,119.9l3.6,7.6l2.9-6.5c0,0-2.5-5.6-6-5.1L212.1,119.9z"/>
			<polygon class="st12" points="218.3,127.9 221.2,123.2 218.6,121.1 215.7,127.5 			"/>
			<path class="st2" d="M202,304.3c0.8,0,1.6-0.2,2.2-0.3c0.1,0,0.1-0.1,0.1-0.2c0-0.1,0-0.2-0.1-0.2c-0.3-0.2-2.8-1.8-3.8-1.4
				c-0.2,0.1-0.3,0.2-0.4,0.6c-0.1,0.4,0,0.8,0.3,1.1C200.8,304.2,201.4,304.3,202,304.3z M203.7,303.7c-1.5,0.3-2.6,0.2-3-0.1
				c-0.2-0.2-0.2-0.4-0.2-0.7c0-0.2,0.1-0.2,0.2-0.3C201.2,302.4,202.7,303.1,203.7,303.7z"/>
			<path class="st2" d="M204.2,304C204.2,304,204.3,304,204.2,304c0.2-0.1,0.2-0.1,0.2-0.2c0-0.1,0-2.5-0.9-3.3
				c-0.2-0.2-0.5-0.3-0.8-0.3c-0.5,0.1-0.6,0.4-0.7,0.6C201.8,301.7,203.3,303.6,204.2,304C204.1,304,204.2,304,204.2,304z
				 M202.8,300.6c0.2,0,0.3,0.1,0.4,0.2c0.5,0.5,0.7,1.8,0.8,2.6c-0.8-0.6-1.7-2-1.6-2.6C202.4,300.8,202.4,300.7,202.8,300.6
				C202.7,300.6,202.8,300.6,202.8,300.6z"/>
			<path class="st13" d="M192.6,300.2c0-0.1,0.1-0.1,0-0.2c0-0.1-0.1-0.1-0.2-0.1c-0.4,0-4-0.2-4.8,0.7c0,0,0,0,0,0.1
				c-0.1,0.2-0.2,0.4-0.1,0.6c0.1,0.4,0.4,0.6,0.7,0.7C189.4,302.4,191.5,301.1,192.6,300.2C192.6,300.3,192.6,300.3,192.6,300.2z
				 M187.9,300.9c0.4-0.5,2.4-0.6,3.9-0.6c-1.6,1.1-2.8,1.6-3.5,1.4c-0.2-0.1-0.4-0.2-0.5-0.5C187.8,301.1,187.9,301,187.9,300.9
				C187.9,300.9,187.9,300.9,187.9,300.9z"/>
			<path class="st13" d="M192.6,300.2C192.6,300.2,192.6,300.2,192.6,300.2c0.1-0.1,0.1-0.2,0-0.2c0-0.1-1.2-2.1-2.5-2.4
				c-0.4-0.1-0.8-0.1-1.1,0.1c-0.5,0.3-0.5,0.6-0.4,0.8c0.3,0.9,2.8,1.7,3.9,1.7C192.5,300.3,192.6,300.3,192.6,300.2z M189,298.2
				c0,0,0.1-0.1,0.2-0.1c0.3-0.2,0.5-0.2,0.8-0.1c0.9,0.2,1.7,1.3,2,1.9c-1.2-0.1-3-0.9-3.1-1.4C188.9,298.4,188.9,298.4,189,298.2z
				"/>
			<path class="st12" d="M203.6,43.4c-1,5-3.2,15.8,0.3,19.1c0,0-1.4,5-10.6,5c-10.2,0-4.9-5-4.9-5c5.5-1.3,5.4-5.4,4.4-9.3
				L203.6,43.4z"/>
			<path class="st10" d="M186.7,31.7c0.1,0,0.1,0,0.2,0c0.2-0.1,0.3-0.3,0.2-0.5c-1-2-2.8-2.2-2.9-2.2c-0.2,0-0.4,0.1-0.4,0.3
				c0,0.2,0.1,0.4,0.3,0.4l0,0c0.1,0,1.5,0.2,2.3,1.8C186.4,31.6,186.5,31.7,186.7,31.7z"/>
			<path class="st14" d="M183.7,36.1c0,0-1.5,2.7-2.9,4c0.8,0.9,2.3,0.7,2.3,0.7L183.7,36.1z"/>
			<path class="st10" d="M184.4,35c-0.1,0.7-0.5,1.2-0.9,1.1c-0.4-0.1-0.7-0.6-0.6-1.3c0.1-0.7,0.5-1.2,0.9-1.1
				C184.2,33.7,184.5,34.3,184.4,35z"/>
			<path class="st10" d="M183.9,33.7l-1.6-0.7C182.4,33.1,183.1,34.4,183.9,33.7z"/>
			<polygon class="st12" points="201.4,298.3 193.3,300.3 188.3,281.5 196.5,279.6 			"/>
			<polygon class="st12" points="213.9,303.8 205.6,303.8 206.2,284.4 214.6,284.4 			"/>
			<path class="st10" d="M204.9,302.9h9.4c0.3,0,0.6,0.2,0.7,0.6l1.1,7.4c0.1,0.8-0.6,1.5-1.3,1.5c-3.3-0.1-4.9-0.2-9-0.2
				c-2.5,0-6.3,0.3-9.8,0.3c-3.4,0-3.7-3.5-2.2-3.8c6.6-1.4,7.6-3.4,9.8-5.2C203.9,303,204.4,302.9,204.9,302.9z"/>
			<path class="st10" d="M192.5,299l8.5-3.9c0.3-0.1,0.7,0,0.8,0.2l4.1,6.3c0.4,0.7,0.1,1.6-0.6,1.9c-3,1.3-4.5,1.8-8.3,3.5
				c-2.3,1.1-7,3.5-10.2,5c-3.1,1.4-4.8-1.6-3.6-2.5c5.4-4,6.9-6.9,8.1-9.5C191.7,299.6,192.1,299.2,192.5,299z"/>
			<g>
				<polygon class="st15" points="188.3,281.5 191,291.5 199,289.3 196.5,279.6 				"/>
				<polygon class="st15" points="214.6,284.4 206.2,284.4 205.9,294.4 214.3,294.4 				"/>
			</g>
			<path class="st16" d="M218.4,64.5c3.5,0.8,7.2,13.3,7.2,13.3l-9.8,10.5c0,0-8.2-11.8-6.5-16.1C211,67.6,214.3,63.6,218.4,64.5z"
				/>
			<path class="st17" d="M212.9,72.4c-1.8-1.6-2.9-1.1-3.8,0.1c-0.8,3.7,3.9,11.5,5.8,14.5C215.8,83.5,216.8,76.1,212.9,72.4z"/>
			<path class="st16" d="M174.3,64.7c0,0-4,1.4,4,50.6c13.5,0,27.5,0,34,0c-0.6-13.8-0.6-22.4,6-50.8c0,0-7.1-1.6-14.4-1.9
				c-5.7-0.3-10.4-0.5-15.4,0C181.8,63.2,174.3,64.7,174.3,64.7z"/>
			<path class="st17" d="M174,83.6c0.2,2.4,0.5,5.1,0.9,8.1c2.8-2.5,5.1-9.6,4.2-13.8C177.2,79.3,175.4,81.6,174,83.6z"/>
			<path class="st11" d="M177.6,76.1c-1.9,4.7-3.9,9.1-6.2,13.6c-2.3,4.4-4.7,8.8-8,13l-0.6,0.8l-0.3,0.4c-0.1,0.1-0.2,0.2-0.4,0.4
				c-0.6,0.7-1.3,1.3-2,1.8c-1.4,1-2.8,1.6-4.2,2.1c-2.8,0.9-5.4,1.3-8,1.4c-5.2,0.2-10.2-0.3-15.2-1.3l0.6-4.2c2.3,0,4.7,0,7-0.2
				c2.3-0.1,4.6-0.4,6.9-0.8c2.2-0.4,4.4-0.9,6.1-1.7c0.9-0.4,1.6-0.9,2.2-1.3c0.3-0.2,0.5-0.5,0.7-0.7c0,0,0.1-0.2,0.2-0.3l0.2-0.3
				l0.5-0.7c2.5-3.6,4.6-7.9,6.7-12.1c2-4.3,4-8.7,5.8-13L177.6,76.1z"/>
			<path class="st16" d="M174.3,64.7c-4.2,1-9.3,12.4-9.3,12.4l8.6,12.7c0,0,11.5-14.5,10.1-18.9C182.4,66.3,179.4,63.5,174.3,64.7z
				"/>
			<path class="st12" d="M135.7,104.6l-7.2-3.3l-0.7,7.2c0,0,6,1.8,9,0L135.7,104.6z"/>
			<polygon class="st12" points="124.2,100.6 123.5,106 127.8,108.5 128.5,101.3 			"/>
			<path class="st12" d="M207.2,35.5c-1.5,8.2-2,11.7-6.7,15.4c-7,5.6-16.7,1.9-17.7-6.5c-0.9-7.6,1.8-19.7,10.2-22
				C201.4,20.1,208.8,27.3,207.2,35.5z"/>
			<path class="st10" d="M189.3,37.2c-0.5,4.2-0.6,15,8.5,15.3c11.2,0.4,14.6-9.2,13.6-13c5.8-4.8,6.7-12.9,0.1-19.2
				c-6.6-6.3-21-2.8-25,3.3C181.4,31.2,189.3,37.2,189.3,37.2z"/>
			<path class="st18" d="M200.5,22.8c-0.5-4.4-0.1-7.4,4-7.4c4.1,0,9.7,1.5,11.8,5.7c2.1,4.2,2.2,10.8-3.5,10.1
				C207,30.5,201.2,28.1,200.5,22.8z"/>
			<path class="st10" d="M206.9,21.7c-1-5.2,3.7-20,15.1-21c5.3-0.4,7.7,5.2,5,6.2c5-0.1,8.2,6.5,3.5,7.5c3.7,2.4,2.8,7.2-2.5,9.6
				C224.1,25.8,208.2,29,206.9,21.7z"/>
			<path class="st10" d="M219.1,27.4c-3.7,0-7.5-0.5-9.9-2.1c-1.4-1-2.2-2.2-2.4-3.8c0-0.1,0.1-0.3,0.2-0.3c0.1,0,0.3,0.1,0.3,0.2
				c0.1,1.4,0.8,2.6,2.1,3.4c4.5,3,15,2,18.3,1c2.8-0.9,4.7-2.7,5.1-4.8c0.3-1.5-0.3-3-1.7-4c-0.1-0.1-0.1-0.2,0-0.4
				c0.1-0.1,0.2-0.1,0.4,0c1.5,1.2,2.2,2.8,1.9,4.5c-0.4,2.2-2.4,4.2-5.4,5.2C226.2,26.8,222.7,27.4,219.1,27.4z"/>
			<path class="st12" d="M186.7,36.1c-1,1.4-1.3,3.1-1.1,4.5c0.3,2.1,2.4,2.2,3.9,0.9c1.3-1.2,2.8-3.8,1.7-5.5
				C190.1,34.3,187.9,34.5,186.7,36.1z"/>
			<path class="st18" d="M187.3,115.3c0,0,4.9,57.5,9.9,89.9c4.1,26.2,7.3,87.3,7.3,87.3h11.4c0,0,4.1-59.3,2-85.2
				c-5.2-65.5,6.4-70.8-5.6-92H187.3z"/>
			<path class="st17" d="M201.7,137c-4.6,4.7-8.1,10.3-10.8,16.3c1.3,12.9,2.9,27.3,4.6,39.8C200.7,180,205.1,159.8,201.7,137z"/>
			<path class="st18" d="M179.3,114.9c0,0-10.5,62.8-12.2,91.1c4.1,26.2,21.1,81.5,21.1,81.5l10.4-3.8c0,0-5.7-60.3-12-76.8
				c14.1-47.4,24.4-59.3,21.4-91.6C200.8,115.3,179.3,114.9,179.3,114.9z"/>
			<polygon class="st10" points="186.8,290.2 200.8,286.4 200,280.8 185,284.9 			"/>
			<polygon class="st10" points="202.9,292.7 217.5,292.7 218.2,287.6 202.8,287.1 			"/>
			<g>
				<path class="st10" d="M212.8,113.3l1.5,3c0.1,0.2-0.2,0.5-0.6,0.5h-35.7c-0.3,0-0.6-0.2-0.6-0.3l-0.3-3c0-0.2,0.2-0.4,0.6-0.4
					h34.4C212.5,113,212.8,113.1,212.8,113.3z"/>
				<path class="st19" d="M212.8,113.3l1.5,3c0.1,0.2-0.2,0.5-0.6,0.5h-35.7c-0.3,0-0.6-0.2-0.6-0.3l-0.3-3c0-0.2,0.2-0.4,0.6-0.4
					h34.4C212.5,113,212.8,113.1,212.8,113.3z"/>
			</g>
			<path class="st2" d="M208.2,117.1h0.9c0.2,0,0.3-0.1,0.3-0.2l-0.4-4c0-0.1-0.2-0.2-0.4-0.2h-0.9c-0.2,0-0.3,0.1-0.3,0.2l0.4,4
				C207.9,117,208,117.1,208.2,117.1z"/>
			<g>
				<path class="st6" d="M195.8,88c-0.2,0-0.4-0.2-0.5-0.4c-3.3-12.1-10-22-13.3-23.5c-0.4-0.2-0.7-0.2-0.8-0.1
					c-0.3,0.1-0.5,0-0.7-0.3c-0.1-0.3,0-0.5,0.3-0.7c0.5-0.2,1-0.2,1.7,0.1c3.5,1.6,10.3,11.4,13.7,23.8c2.5,0,6.2-0.3,7.1-0.4
					c1.1-1.4,9.5-11.8,6.4-23.3c-0.1-0.3,0.1-0.5,0.4-0.6c0.3-0.1,0.5,0.1,0.6,0.4c3.5,12.8-6.6,24.3-6.7,24.4
					c-0.1,0.1-0.2,0.2-0.3,0.2C203.6,87.6,198.6,88,195.8,88z"/>
				<g>
					<g>
						<path class="st6" d="M212.4,95.1c-5.5-10.2-7.7-10.9-8.7-14.2c0,0,0.9-2.5,3.1-5c-0.7-0.2-2.1-0.5-3-0.6
							c0.1-0.4,0.2-0.9,0.3-1.3c-0.7-0.2-2.3,0-3,0.1l0-1c0,0-2.8-0.6-3.9-0.2c0.1,0.5,0.2,0.9,0.3,1.4c-1,0.2-2.5,0.5-3.3,0.7
							c2.1,2.4,2.9,4.9,3.1,5.6c-2.9,5-14.4,37.5,4.2,40C220.2,122.9,217.8,105.3,212.4,95.1z"/>
						<path class="st20" d="M212.4,95.1c-5.5-10.2-7.7-10.9-8.7-14.2c0,0,0.9-2.5,3.1-5c-0.7-0.2-2.1-0.5-3-0.6
							c0.1-0.4,0.2-0.9,0.3-1.3c-0.7-0.2-2.3,0-3,0.1l0-1c0,0-2.8-0.6-3.9-0.2c0.1,0.5,0.2,0.9,0.3,1.4c-1,0.2-2.5,0.5-3.3,0.7
							c2.1,2.4,2.9,4.9,3.1,5.6c-2.9,5-14.4,37.5,4.2,40C220.2,122.9,217.8,105.3,212.4,95.1z"/>
					</g>
					<path class="st21" d="M196.7,79.5c-0.1,0.2-0.1,1.2-0.1,1.6s1,0.6,2.1,0.7s5.8,0.3,5.6-0.2c-0.1-0.5,0.2-1.2,0.2-1.7
						c0-0.4-1.9-0.5-3.4-0.4S197,79,196.7,79.5z"/>
				</g>
			</g>
			<path class="st18" d="M185.9,117.1h0.9c0.2,0,0.3-0.1,0.3-0.2l-0.4-4c0-0.1-0.2-0.2-0.4-0.2h-0.9c-0.2,0-0.3,0.1-0.3,0.2l0.4,4
				C185.5,117,185.7,117.1,185.9,117.1z"/>
		</g>
	</g>
</g>
</svg>
